<svg width="720" height="1024" viewBox="0 0 720 1024" fill="none" xmlns="http://www.w3.org/2000/svg">
<rect width="720" height="1024" fill="#6172F3"/>
<circle cx="360" cy="512" r="303" fill="url(#paint0_radial_5_947)" fill-opacity="0.2"/>
<circle cx="360" cy="512" r="303" fill="url(#paint1_linear_5_947)" fill-opacity="0.2"/>
<circle cx="360" cy="511" r="264" fill="url(#paint2_radial_5_947)" fill-opacity="0.2"/>
<circle cx="360" cy="511" r="264" fill="url(#paint3_linear_5_947)" fill-opacity="0.2"/>
<path d="M323.955 884.24C323.008 884.24 322.135 884.067 321.335 883.72C320.548 883.36 319.902 882.853 319.395 882.2L321.195 880.04C321.582 880.547 321.988 880.933 322.415 881.2C322.842 881.453 323.302 881.58 323.795 881.58C325.115 881.58 325.775 880.807 325.775 879.26V872.6H320.855V870H328.995V879.08C328.995 880.813 328.568 882.107 327.715 882.96C326.862 883.813 325.608 884.24 323.955 884.24ZM337.095 884.16C335.948 884.16 334.928 883.92 334.035 883.44C333.155 882.96 332.455 882.307 331.935 881.48C331.428 880.64 331.175 879.687 331.175 878.62C331.175 877.54 331.428 876.587 331.935 875.76C332.455 874.92 333.155 874.267 334.035 873.8C334.928 873.32 335.948 873.08 337.095 873.08C338.228 873.08 339.242 873.32 340.135 873.8C341.028 874.267 341.728 874.913 342.235 875.74C342.742 876.567 342.995 877.527 342.995 878.62C342.995 879.687 342.742 880.64 342.235 881.48C341.728 882.307 341.028 882.96 340.135 883.44C339.242 883.92 338.228 884.16 337.095 884.16ZM337.095 881.6C337.615 881.6 338.082 881.48 338.495 881.24C338.908 881 339.235 880.66 339.475 880.22C339.715 879.767 339.835 879.233 339.835 878.62C339.835 877.993 339.715 877.46 339.475 877.02C339.235 876.58 338.908 876.24 338.495 876C338.082 875.76 337.615 875.64 337.095 875.64C336.575 875.64 336.108 875.76 335.695 876C335.282 876.24 334.948 876.58 334.695 877.02C334.455 877.46 334.335 877.993 334.335 878.62C334.335 879.233 334.455 879.767 334.695 880.22C334.948 880.66 335.282 881 335.695 881.24C336.108 881.48 336.575 881.6 337.095 881.6ZM345.081 884V873.24H348.201V884H345.081ZM346.641 871.74C346.067 871.74 345.601 871.573 345.241 871.24C344.881 870.907 344.701 870.493 344.701 870C344.701 869.507 344.881 869.093 345.241 868.76C345.601 868.427 346.067 868.26 346.641 868.26C347.214 868.26 347.681 868.42 348.041 868.74C348.401 869.047 348.581 869.447 348.581 869.94C348.581 870.46 348.401 870.893 348.041 871.24C347.694 871.573 347.227 871.74 346.641 871.74ZM357.636 873.08C358.49 873.08 359.25 873.253 359.916 873.6C360.596 873.933 361.13 874.453 361.516 875.16C361.903 875.853 362.096 876.747 362.096 877.84V884H358.976V878.32C358.976 877.453 358.783 876.813 358.396 876.4C358.023 875.987 357.49 875.78 356.796 875.78C356.303 875.78 355.856 875.887 355.456 876.1C355.07 876.3 354.763 876.613 354.536 877.04C354.323 877.467 354.216 878.013 354.216 878.68V884H351.096V873.24H354.076V876.22L353.516 875.32C353.903 874.6 354.456 874.047 355.176 873.66C355.896 873.273 356.716 873.08 357.636 873.08ZM375.128 884.16C374.235 884.16 373.435 883.987 372.728 883.64C372.035 883.293 371.495 882.767 371.108 882.06C370.722 881.34 370.528 880.427 370.528 879.32V873.24H373.648V878.86C373.648 879.753 373.835 880.413 374.208 880.84C374.595 881.253 375.135 881.46 375.828 881.46C376.308 881.46 376.735 881.36 377.108 881.16C377.482 880.947 377.775 880.627 377.988 880.2C378.202 879.76 378.308 879.213 378.308 878.56V873.24H381.428V884H378.468V881.04L379.008 881.9C378.648 882.647 378.115 883.213 377.408 883.6C376.715 883.973 375.955 884.16 375.128 884.16ZM387.939 884.16C387.019 884.16 386.132 884.053 385.279 883.84C384.439 883.613 383.772 883.333 383.279 883L384.319 880.76C384.812 881.067 385.392 881.32 386.059 881.52C386.739 881.707 387.406 881.8 388.059 881.8C388.779 881.8 389.286 881.713 389.579 881.54C389.886 881.367 390.039 881.127 390.039 880.82C390.039 880.567 389.919 880.38 389.679 880.26C389.452 880.127 389.146 880.027 388.759 879.96C388.372 879.893 387.946 879.827 387.479 879.76C387.026 879.693 386.566 879.607 386.099 879.5C385.632 879.38 385.206 879.207 384.819 878.98C384.432 878.753 384.119 878.447 383.879 878.06C383.652 877.673 383.539 877.173 383.539 876.56C383.539 875.88 383.732 875.28 384.119 874.76C384.519 874.24 385.092 873.833 385.839 873.54C386.586 873.233 387.479 873.08 388.519 873.08C389.252 873.08 389.999 873.16 390.759 873.32C391.519 873.48 392.152 873.713 392.659 874.02L391.619 876.24C391.099 875.933 390.572 875.727 390.039 875.62C389.519 875.5 389.012 875.44 388.519 875.44C387.826 875.44 387.319 875.533 386.999 875.72C386.679 875.907 386.519 876.147 386.519 876.44C386.519 876.707 386.632 876.907 386.859 877.04C387.099 877.173 387.412 877.28 387.799 877.36C388.186 877.44 388.606 877.513 389.059 877.58C389.526 877.633 389.992 877.72 390.459 877.84C390.926 877.96 391.346 878.133 391.719 878.36C392.106 878.573 392.419 878.873 392.659 879.26C392.899 879.633 393.019 880.127 393.019 880.74C393.019 881.407 392.819 882 392.419 882.52C392.019 883.027 391.439 883.427 390.679 883.72C389.932 884.013 389.019 884.16 387.939 884.16ZM395.164 879.14L394.544 870H398.264L397.644 879.14H395.164ZM396.404 884.16C395.844 884.16 395.384 883.98 395.024 883.62C394.664 883.26 394.484 882.833 394.484 882.34C394.484 881.833 394.664 881.413 395.024 881.08C395.384 880.733 395.844 880.56 396.404 880.56C396.977 880.56 397.437 880.733 397.784 881.08C398.144 881.413 398.324 881.833 398.324 882.34C398.324 882.833 398.144 883.26 397.784 883.62C397.437 883.98 396.977 884.16 396.404 884.16Z" fill="#E0EAFF"/>
<path d="M123.784 908.128C123.123 908.128 122.504 907.989 121.928 907.712C121.352 907.435 120.883 907.035 120.52 906.512L121.448 905.424C121.757 905.851 122.104 906.181 122.488 906.416C122.883 906.64 123.315 906.752 123.784 906.752C125.064 906.752 125.704 905.995 125.704 904.48V898.192H121.656V896.8H127.288V904.4C127.288 905.648 126.989 906.581 126.392 907.2C125.805 907.819 124.936 908.128 123.784 908.128ZM133.891 908.096C133.166 908.096 132.526 907.963 131.971 907.696C131.427 907.429 131.001 907.024 130.691 906.48C130.393 905.925 130.243 905.232 130.243 904.4V899.52H131.779V904.224C131.779 905.056 131.977 905.68 132.371 906.096C132.777 906.512 133.342 906.72 134.067 906.72C134.601 906.72 135.065 906.613 135.459 906.4C135.854 906.176 136.158 905.856 136.371 905.44C136.585 905.013 136.691 904.501 136.691 903.904V899.52H138.227V908H136.771V905.712L137.011 906.32C136.734 906.885 136.318 907.323 135.763 907.632C135.209 907.941 134.585 908.096 133.891 908.096ZM143.583 908.096C142.879 908.096 142.207 908 141.567 907.808C140.938 907.616 140.442 907.381 140.079 907.104L140.719 905.888C141.082 906.133 141.53 906.341 142.063 906.512C142.597 906.683 143.141 906.768 143.695 906.768C144.41 906.768 144.922 906.667 145.231 906.464C145.551 906.261 145.711 905.979 145.711 905.616C145.711 905.349 145.615 905.141 145.423 904.992C145.231 904.843 144.975 904.731 144.655 904.656C144.346 904.581 143.999 904.517 143.615 904.464C143.231 904.4 142.847 904.325 142.463 904.24C142.079 904.144 141.727 904.016 141.407 903.856C141.087 903.685 140.831 903.456 140.639 903.168C140.447 902.869 140.351 902.475 140.351 901.984C140.351 901.472 140.495 901.024 140.783 900.64C141.071 900.256 141.477 899.963 141.999 899.76C142.533 899.547 143.162 899.44 143.887 899.44C144.442 899.44 145.002 899.509 145.567 899.648C146.143 899.776 146.613 899.963 146.975 900.208L146.319 901.424C145.935 901.168 145.535 900.992 145.119 900.896C144.703 900.8 144.287 900.752 143.871 900.752C143.199 900.752 142.698 900.864 142.367 901.088C142.037 901.301 141.871 901.579 141.871 901.92C141.871 902.208 141.967 902.432 142.159 902.592C142.362 902.741 142.618 902.859 142.927 902.944C143.247 903.029 143.599 903.104 143.983 903.168C144.367 903.221 144.751 903.296 145.135 903.392C145.519 903.477 145.866 903.6 146.175 903.76C146.495 903.92 146.751 904.144 146.943 904.432C147.146 904.72 147.247 905.104 147.247 905.584C147.247 906.096 147.098 906.539 146.799 906.912C146.501 907.285 146.079 907.579 145.535 907.792C144.991 907.995 144.341 908.096 143.583 908.096ZM152.079 908.096C151.226 908.096 150.564 907.867 150.095 907.408C149.626 906.949 149.391 906.293 149.391 905.44V897.664H150.927V905.376C150.927 905.835 151.039 906.187 151.263 906.432C151.498 906.677 151.828 906.8 152.255 906.8C152.735 906.8 153.135 906.667 153.455 906.4L153.935 907.504C153.7 907.707 153.418 907.856 153.087 907.952C152.767 908.048 152.431 908.096 152.079 908.096ZM147.951 900.784V899.52H153.359V900.784H147.951ZM163.801 911.2C163.022 911.2 162.265 911.088 161.529 910.864C160.803 910.651 160.211 910.341 159.753 909.936L160.489 908.752C160.883 909.093 161.369 909.36 161.945 909.552C162.521 909.755 163.123 909.856 163.753 909.856C164.755 909.856 165.491 909.621 165.961 909.152C166.43 908.683 166.665 907.968 166.665 907.008V905.216L166.825 903.536L166.745 901.84V899.52H168.201V906.848C168.201 908.341 167.827 909.44 167.081 910.144C166.334 910.848 165.241 911.2 163.801 911.2ZM163.609 907.648C162.787 907.648 162.051 907.477 161.401 907.136C160.761 906.784 160.249 906.299 159.865 905.68C159.491 905.061 159.305 904.347 159.305 903.536C159.305 902.715 159.491 902 159.865 901.392C160.249 900.773 160.761 900.293 161.401 899.952C162.051 899.611 162.787 899.44 163.609 899.44C164.334 899.44 164.995 899.589 165.593 899.888C166.19 900.176 166.665 900.624 167.017 901.232C167.379 901.84 167.561 902.608 167.561 903.536C167.561 904.453 167.379 905.216 167.017 905.824C166.665 906.432 166.19 906.891 165.593 907.2C164.995 907.499 164.334 907.648 163.609 907.648ZM163.785 906.304C164.35 906.304 164.851 906.187 165.289 905.952C165.726 905.717 166.067 905.392 166.313 904.976C166.569 904.56 166.697 904.08 166.697 903.536C166.697 902.992 166.569 902.512 166.313 902.096C166.067 901.68 165.726 901.36 165.289 901.136C164.851 900.901 164.35 900.784 163.785 900.784C163.219 900.784 162.713 900.901 162.265 901.136C161.827 901.36 161.481 901.68 161.225 902.096C160.979 902.512 160.857 902.992 160.857 903.536C160.857 904.08 160.979 904.56 161.225 904.976C161.481 905.392 161.827 905.717 162.265 905.952C162.713 906.187 163.219 906.304 163.785 906.304ZM174.768 908.096C173.914 908.096 173.157 907.909 172.496 907.536C171.834 907.163 171.312 906.651 170.928 906C170.544 905.339 170.352 904.592 170.352 903.76C170.352 902.917 170.544 902.171 170.928 901.52C171.312 900.869 171.834 900.363 172.496 900C173.157 899.627 173.914 899.44 174.768 899.44C175.61 899.44 176.362 899.627 177.024 900C177.696 900.363 178.218 900.869 178.592 901.52C178.976 902.16 179.168 902.907 179.168 903.76C179.168 904.603 178.976 905.349 178.592 906C178.218 906.651 177.696 907.163 177.024 907.536C176.362 907.909 175.61 908.096 174.768 908.096ZM174.768 906.752C175.312 906.752 175.797 906.629 176.224 906.384C176.661 906.139 177.002 905.792 177.248 905.344C177.493 904.885 177.616 904.357 177.616 903.76C177.616 903.152 177.493 902.629 177.248 902.192C177.002 901.744 176.661 901.397 176.224 901.152C175.797 900.907 175.312 900.784 174.768 900.784C174.224 900.784 173.738 900.907 173.312 901.152C172.885 901.397 172.544 901.744 172.288 902.192C172.032 902.629 171.904 903.152 171.904 903.76C171.904 904.357 172.032 904.885 172.288 905.344C172.544 905.792 172.885 906.139 173.312 906.384C173.738 906.629 174.224 906.752 174.768 906.752ZM188.501 908.096C187.647 908.096 186.986 907.867 186.517 907.408C186.047 906.949 185.813 906.293 185.813 905.44V897.664H187.349V905.376C187.349 905.835 187.461 906.187 187.685 906.432C187.919 906.677 188.25 906.8 188.677 906.8C189.157 906.8 189.557 906.667 189.877 906.4L190.357 907.504C190.122 907.707 189.839 907.856 189.509 907.952C189.189 908.048 188.853 908.096 188.501 908.096ZM184.373 900.784V899.52H189.781V900.784H184.373ZM196.742 899.44C197.435 899.44 198.043 899.573 198.566 899.84C199.099 900.107 199.515 900.512 199.814 901.056C200.112 901.6 200.262 902.288 200.262 903.12V908H198.726V903.296C198.726 902.475 198.523 901.856 198.118 901.44C197.723 901.024 197.163 900.816 196.438 900.816C195.894 900.816 195.419 900.923 195.014 901.136C194.608 901.349 194.294 901.664 194.07 902.08C193.856 902.496 193.75 903.013 193.75 903.632V908H192.214V896.128H193.75V901.808L193.446 901.2C193.723 900.645 194.15 900.213 194.726 899.904C195.302 899.595 195.974 899.44 196.742 899.44ZM203.104 908V899.52H204.576V901.824L204.432 901.248C204.667 900.661 205.062 900.213 205.616 899.904C206.171 899.595 206.854 899.44 207.664 899.44V900.928C207.6 900.917 207.536 900.912 207.472 900.912C207.419 900.912 207.366 900.912 207.312 900.912C206.491 900.912 205.84 901.157 205.36 901.648C204.88 902.139 204.64 902.848 204.64 903.776V908H203.104ZM213.111 908.096C212.258 908.096 211.501 907.909 210.839 907.536C210.178 907.163 209.655 906.651 209.271 906C208.887 905.339 208.695 904.592 208.695 903.76C208.695 902.917 208.887 902.171 209.271 901.52C209.655 900.869 210.178 900.363 210.839 900C211.501 899.627 212.258 899.44 213.111 899.44C213.954 899.44 214.706 899.627 215.367 900C216.039 900.363 216.562 900.869 216.935 901.52C217.319 902.16 217.511 902.907 217.511 903.76C217.511 904.603 217.319 905.349 216.935 906C216.562 906.651 216.039 907.163 215.367 907.536C214.706 907.909 213.954 908.096 213.111 908.096ZM213.111 906.752C213.655 906.752 214.141 906.629 214.567 906.384C215.005 906.139 215.346 905.792 215.591 905.344C215.837 904.885 215.959 904.357 215.959 903.76C215.959 903.152 215.837 902.629 215.591 902.192C215.346 901.744 215.005 901.397 214.567 901.152C214.141 900.907 213.655 900.784 213.111 900.784C212.567 900.784 212.082 900.907 211.655 901.152C211.229 901.397 210.887 901.744 210.631 902.192C210.375 902.629 210.247 903.152 210.247 903.76C210.247 904.357 210.375 904.885 210.631 905.344C210.887 905.792 211.229 906.139 211.655 906.384C212.082 906.629 212.567 906.752 213.111 906.752ZM223.204 908.096C222.478 908.096 221.838 907.963 221.284 907.696C220.74 907.429 220.313 907.024 220.004 906.48C219.705 905.925 219.556 905.232 219.556 904.4V899.52H221.092V904.224C221.092 905.056 221.289 905.68 221.684 906.096C222.089 906.512 222.654 906.72 223.38 906.72C223.913 906.72 224.377 906.613 224.772 906.4C225.166 906.176 225.47 905.856 225.684 905.44C225.897 905.013 226.004 904.501 226.004 903.904V899.52H227.54V908H226.084V905.712L226.324 906.32C226.046 906.885 225.63 907.323 225.076 907.632C224.521 907.941 223.897 908.096 223.204 908.096ZM234.176 911.2C233.397 911.2 232.64 911.088 231.904 910.864C231.178 910.651 230.586 910.341 230.128 909.936L230.864 908.752C231.258 909.093 231.744 909.36 232.32 909.552C232.896 909.755 233.498 909.856 234.128 909.856C235.13 909.856 235.866 909.621 236.336 909.152C236.805 908.683 237.04 907.968 237.04 907.008V905.216L237.2 903.536L237.12 901.84V899.52H238.576V906.848C238.576 908.341 238.202 909.44 237.456 910.144C236.709 910.848 235.616 911.2 234.176 911.2ZM233.984 907.648C233.162 907.648 232.426 907.477 231.776 907.136C231.136 906.784 230.624 906.299 230.24 905.68C229.866 905.061 229.68 904.347 229.68 903.536C229.68 902.715 229.866 902 230.24 901.392C230.624 900.773 231.136 900.293 231.776 899.952C232.426 899.611 233.162 899.44 233.984 899.44C234.709 899.44 235.37 899.589 235.968 899.888C236.565 900.176 237.04 900.624 237.392 901.232C237.754 901.84 237.936 902.608 237.936 903.536C237.936 904.453 237.754 905.216 237.392 905.824C237.04 906.432 236.565 906.891 235.968 907.2C235.37 907.499 234.709 907.648 233.984 907.648ZM234.16 906.304C234.725 906.304 235.226 906.187 235.664 905.952C236.101 905.717 236.442 905.392 236.688 904.976C236.944 904.56 237.072 904.08 237.072 903.536C237.072 902.992 236.944 902.512 236.688 902.096C236.442 901.68 236.101 901.36 235.664 901.136C235.226 900.901 234.725 900.784 234.16 900.784C233.594 900.784 233.088 900.901 232.64 901.136C232.202 901.36 231.856 901.68 231.6 902.096C231.354 902.512 231.232 902.992 231.232 903.536C231.232 904.08 231.354 904.56 231.6 904.976C231.856 905.392 232.202 905.717 232.64 905.952C233.088 906.187 233.594 906.304 234.16 906.304ZM246.039 899.44C246.732 899.44 247.34 899.573 247.863 899.84C248.396 900.107 248.812 900.512 249.111 901.056C249.409 901.6 249.559 902.288 249.559 903.12V908H248.023V903.296C248.023 902.475 247.82 901.856 247.415 901.44C247.02 901.024 246.46 900.816 245.735 900.816C245.191 900.816 244.716 900.923 244.311 901.136C243.905 901.349 243.591 901.664 243.367 902.08C243.153 902.496 243.047 903.013 243.047 903.632V908H241.511V896.128H243.047V901.808L242.743 901.2C243.02 900.645 243.447 900.213 244.023 899.904C244.599 899.595 245.271 899.44 246.039 899.44ZM259.61 908.096C258.757 908.096 258.096 907.867 257.626 907.408C257.157 906.949 256.922 906.293 256.922 905.44V897.664H258.458V905.376C258.458 905.835 258.57 906.187 258.794 906.432C259.029 906.677 259.36 906.8 259.786 906.8C260.266 906.8 260.666 906.667 260.986 906.4L261.466 907.504C261.232 907.707 260.949 907.856 260.618 907.952C260.298 908.048 259.962 908.096 259.61 908.096ZM255.482 900.784V899.52H260.89V900.784H255.482ZM267.851 899.44C268.545 899.44 269.153 899.573 269.675 899.84C270.209 900.107 270.625 900.512 270.923 901.056C271.222 901.6 271.371 902.288 271.371 903.12V908H269.835V903.296C269.835 902.475 269.633 901.856 269.227 901.44C268.833 901.024 268.273 900.816 267.547 900.816C267.003 900.816 266.529 900.923 266.123 901.136C265.718 901.349 265.403 901.664 265.179 902.08C264.966 902.496 264.859 903.013 264.859 903.632V908H263.323V896.128H264.859V901.808L264.555 901.2C264.833 900.645 265.259 900.213 265.835 899.904C266.411 899.595 267.083 899.44 267.851 899.44ZM277.99 908.096C277.083 908.096 276.283 907.909 275.59 907.536C274.907 907.163 274.374 906.651 273.99 906C273.616 905.349 273.43 904.603 273.43 903.76C273.43 902.917 273.611 902.171 273.974 901.52C274.347 900.869 274.854 900.363 275.494 900C276.144 899.627 276.875 899.44 277.686 899.44C278.507 899.44 279.232 899.621 279.862 899.984C280.491 900.347 280.982 900.859 281.334 901.52C281.696 902.171 281.878 902.933 281.878 903.808C281.878 903.872 281.872 903.947 281.862 904.032C281.862 904.117 281.856 904.197 281.846 904.272H274.63V903.168H281.046L280.422 903.552C280.432 903.008 280.32 902.523 280.086 902.096C279.851 901.669 279.526 901.339 279.11 901.104C278.704 900.859 278.23 900.736 277.686 900.736C277.152 900.736 276.678 900.859 276.262 901.104C275.846 901.339 275.52 901.675 275.286 902.112C275.051 902.539 274.934 903.029 274.934 903.584V903.84C274.934 904.405 275.062 904.912 275.318 905.36C275.584 905.797 275.952 906.139 276.422 906.384C276.891 906.629 277.43 906.752 278.038 906.752C278.539 906.752 278.992 906.667 279.398 906.496C279.814 906.325 280.176 906.069 280.486 905.728L281.334 906.72C280.95 907.168 280.47 907.509 279.894 907.744C279.328 907.979 278.694 908.096 277.99 908.096ZM292.804 908.096C292.078 908.096 291.422 907.936 290.836 907.616C290.26 907.285 289.801 906.8 289.46 906.16C289.129 905.52 288.964 904.72 288.964 903.76C288.964 902.8 289.134 902 289.476 901.36C289.828 900.72 290.292 900.24 290.868 899.92C291.454 899.6 292.1 899.44 292.804 899.44C293.636 899.44 294.372 899.621 295.012 899.984C295.652 900.347 296.158 900.853 296.532 901.504C296.905 902.144 297.092 902.896 297.092 903.76C297.092 904.624 296.905 905.381 296.532 906.032C296.158 906.683 295.652 907.189 295.012 907.552C294.372 907.915 293.636 908.096 292.804 908.096ZM288.308 908V896.128H289.844V901.776L289.684 903.744L289.78 905.712V908H288.308ZM292.676 906.752C293.22 906.752 293.705 906.629 294.132 906.384C294.569 906.139 294.91 905.792 295.156 905.344C295.412 904.885 295.54 904.357 295.54 903.76C295.54 903.152 295.412 902.629 295.156 902.192C294.91 901.744 294.569 901.397 294.132 901.152C293.705 900.907 293.22 900.784 292.676 900.784C292.142 900.784 291.657 900.907 291.22 901.152C290.793 901.397 290.452 901.744 290.196 902.192C289.95 902.629 289.828 903.152 289.828 903.76C289.828 904.357 289.95 904.885 290.196 905.344C290.452 905.792 290.793 906.139 291.22 906.384C291.657 906.629 292.142 906.752 292.676 906.752ZM302.846 908.096C301.992 908.096 301.235 907.909 300.574 907.536C299.912 907.163 299.39 906.651 299.006 906C298.622 905.339 298.43 904.592 298.43 903.76C298.43 902.917 298.622 902.171 299.006 901.52C299.39 900.869 299.912 900.363 300.574 900C301.235 899.627 301.992 899.44 302.846 899.44C303.688 899.44 304.44 899.627 305.102 900C305.774 900.363 306.296 900.869 306.67 901.52C307.054 902.16 307.246 902.907 307.246 903.76C307.246 904.603 307.054 905.349 306.67 906C306.296 906.651 305.774 907.163 305.102 907.536C304.44 907.909 303.688 908.096 302.846 908.096ZM302.846 906.752C303.39 906.752 303.875 906.629 304.302 906.384C304.739 906.139 305.08 905.792 305.326 905.344C305.571 904.885 305.694 904.357 305.694 903.76C305.694 903.152 305.571 902.629 305.326 902.192C305.08 901.744 304.739 901.397 304.302 901.152C303.875 900.907 303.39 900.784 302.846 900.784C302.302 900.784 301.816 900.907 301.39 901.152C300.963 901.397 300.622 901.744 300.366 902.192C300.11 902.629 299.982 903.152 299.982 903.76C299.982 904.357 300.11 904.885 300.366 905.344C300.622 905.792 300.963 906.139 301.39 906.384C301.816 906.629 302.302 906.752 302.846 906.752ZM309.37 908V899.52H310.842V901.824L310.698 901.248C310.933 900.661 311.327 900.213 311.882 899.904C312.437 899.595 313.119 899.44 313.93 899.44V900.928C313.866 900.917 313.802 900.912 313.738 900.912C313.685 900.912 313.631 900.912 313.578 900.912C312.757 900.912 312.106 901.157 311.626 901.648C311.146 902.139 310.906 902.848 310.906 903.776V908H309.37ZM315.823 908V899.52H317.359V908H315.823ZM316.591 897.888C316.293 897.888 316.042 897.792 315.839 897.6C315.647 897.408 315.551 897.173 315.551 896.896C315.551 896.608 315.647 896.368 315.839 896.176C316.042 895.984 316.293 895.888 316.591 895.888C316.89 895.888 317.135 895.984 317.327 896.176C317.53 896.357 317.631 896.587 317.631 896.864C317.631 897.152 317.535 897.397 317.343 897.6C317.151 897.792 316.901 897.888 316.591 897.888ZM324.82 899.44C325.513 899.44 326.121 899.573 326.644 899.84C327.177 900.107 327.593 900.512 327.892 901.056C328.191 901.6 328.34 902.288 328.34 903.12V908H326.804V903.296C326.804 902.475 326.601 901.856 326.196 901.44C325.801 901.024 325.241 900.816 324.516 900.816C323.972 900.816 323.497 900.923 323.092 901.136C322.687 901.349 322.372 901.664 322.148 902.08C321.935 902.496 321.828 903.013 321.828 903.632V908H320.292V899.52H321.764V901.808L321.524 901.2C321.801 900.645 322.228 900.213 322.804 899.904C323.38 899.595 324.052 899.44 324.82 899.44ZM334.895 911.2C334.116 911.2 333.359 911.088 332.623 910.864C331.897 910.651 331.305 910.341 330.847 909.936L331.583 908.752C331.977 909.093 332.463 909.36 333.039 909.552C333.615 909.755 334.217 909.856 334.847 909.856C335.849 909.856 336.585 909.621 337.055 909.152C337.524 908.683 337.759 907.968 337.759 907.008V905.216L337.919 903.536L337.839 901.84V899.52H339.295V906.848C339.295 908.341 338.921 909.44 338.175 910.144C337.428 910.848 336.335 911.2 334.895 911.2ZM334.703 907.648C333.881 907.648 333.145 907.477 332.495 907.136C331.855 906.784 331.343 906.299 330.959 905.68C330.585 905.061 330.399 904.347 330.399 903.536C330.399 902.715 330.585 902 330.959 901.392C331.343 900.773 331.855 900.293 332.495 899.952C333.145 899.611 333.881 899.44 334.703 899.44C335.428 899.44 336.089 899.589 336.687 899.888C337.284 900.176 337.759 900.624 338.111 901.232C338.473 901.84 338.655 902.608 338.655 903.536C338.655 904.453 338.473 905.216 338.111 905.824C337.759 906.432 337.284 906.891 336.687 907.2C336.089 907.499 335.428 907.648 334.703 907.648ZM334.879 906.304C335.444 906.304 335.945 906.187 336.383 905.952C336.82 905.717 337.161 905.392 337.407 904.976C337.663 904.56 337.791 904.08 337.791 903.536C337.791 902.992 337.663 902.512 337.407 902.096C337.161 901.68 336.82 901.36 336.383 901.136C335.945 900.901 335.444 900.784 334.879 900.784C334.313 900.784 333.807 900.901 333.359 901.136C332.921 901.36 332.575 901.68 332.319 902.096C332.073 902.512 331.951 902.992 331.951 903.536C331.951 904.08 332.073 904.56 332.319 904.976C332.575 905.392 332.921 905.717 333.359 905.952C333.807 906.187 334.313 906.304 334.879 906.304ZM351.022 908.096C350.318 908.096 349.673 907.936 349.086 907.616C348.51 907.285 348.046 906.8 347.694 906.16C347.353 905.52 347.182 904.72 347.182 903.76C347.182 902.8 347.348 902 347.678 901.36C348.02 900.72 348.478 900.24 349.054 899.92C349.641 899.6 350.297 899.44 351.022 899.44C351.854 899.44 352.59 899.621 353.23 899.984C353.87 900.347 354.377 900.853 354.75 901.504C355.124 902.144 355.31 902.896 355.31 903.76C355.31 904.624 355.124 905.381 354.75 906.032C354.377 906.683 353.87 907.189 353.23 907.552C352.59 907.915 351.854 908.096 351.022 908.096ZM346.526 911.104V899.52H347.998V901.808L347.902 903.776L348.062 905.744V911.104H346.526ZM350.894 906.752C351.438 906.752 351.924 906.629 352.35 906.384C352.788 906.139 353.129 905.792 353.374 905.344C353.63 904.885 353.758 904.357 353.758 903.76C353.758 903.152 353.63 902.629 353.374 902.192C353.129 901.744 352.788 901.397 352.35 901.152C351.924 900.907 351.438 900.784 350.894 900.784C350.361 900.784 349.876 900.907 349.438 901.152C349.012 901.397 348.67 901.744 348.414 902.192C348.169 902.629 348.046 903.152 348.046 903.76C348.046 904.357 348.169 904.885 348.414 905.344C348.67 905.792 349.012 906.139 349.438 906.384C349.876 906.629 350.361 906.752 350.894 906.752ZM357.433 908V899.52H358.905V901.824L358.761 901.248C358.995 900.661 359.39 900.213 359.945 899.904C360.499 899.595 361.182 899.44 361.993 899.44V900.928C361.929 900.917 361.865 900.912 361.801 900.912C361.747 900.912 361.694 900.912 361.641 900.912C360.819 900.912 360.169 901.157 359.689 901.648C359.209 902.139 358.969 902.848 358.969 903.776V908H357.433ZM367.44 908.096C366.586 908.096 365.829 907.909 365.168 907.536C364.506 907.163 363.984 906.651 363.6 906C363.216 905.339 363.024 904.592 363.024 903.76C363.024 902.917 363.216 902.171 363.6 901.52C363.984 900.869 364.506 900.363 365.168 900C365.829 899.627 366.586 899.44 367.44 899.44C368.282 899.44 369.034 899.627 369.696 900C370.368 900.363 370.89 900.869 371.264 901.52C371.648 902.16 371.84 902.907 371.84 903.76C371.84 904.603 371.648 905.349 371.264 906C370.89 906.651 370.368 907.163 369.696 907.536C369.034 907.909 368.282 908.096 367.44 908.096ZM367.44 906.752C367.984 906.752 368.469 906.629 368.896 906.384C369.333 906.139 369.674 905.792 369.92 905.344C370.165 904.885 370.288 904.357 370.288 903.76C370.288 903.152 370.165 902.629 369.92 902.192C369.674 901.744 369.333 901.397 368.896 901.152C368.469 900.907 367.984 900.784 367.44 900.784C366.896 900.784 366.41 900.907 365.984 901.152C365.557 901.397 365.216 901.744 364.96 902.192C364.704 902.629 364.576 903.152 364.576 903.76C364.576 904.357 364.704 904.885 364.96 905.344C365.216 905.792 365.557 906.139 365.984 906.384C366.41 906.629 366.896 906.752 367.44 906.752ZM377.66 908.096C376.796 908.096 376.022 907.909 375.34 907.536C374.668 907.163 374.14 906.651 373.756 906C373.372 905.349 373.18 904.603 373.18 903.76C373.18 902.917 373.372 902.171 373.756 901.52C374.14 900.869 374.668 900.363 375.34 900C376.022 899.627 376.796 899.44 377.66 899.44C378.428 899.44 379.11 899.595 379.708 899.904C380.316 900.203 380.785 900.651 381.116 901.248L379.948 902C379.67 901.584 379.329 901.28 378.924 901.088C378.529 900.885 378.102 900.784 377.644 900.784C377.089 900.784 376.593 900.907 376.156 901.152C375.718 901.397 375.372 901.744 375.116 902.192C374.86 902.629 374.732 903.152 374.732 903.76C374.732 904.368 374.86 904.896 375.116 905.344C375.372 905.792 375.718 906.139 376.156 906.384C376.593 906.629 377.089 906.752 377.644 906.752C378.102 906.752 378.529 906.656 378.924 906.464C379.329 906.261 379.67 905.952 379.948 905.536L381.116 906.272C380.785 906.859 380.316 907.312 379.708 907.632C379.11 907.941 378.428 908.096 377.66 908.096ZM386.755 908.096C385.849 908.096 385.049 907.909 384.355 907.536C383.673 907.163 383.139 906.651 382.755 906C382.382 905.349 382.195 904.603 382.195 903.76C382.195 902.917 382.377 902.171 382.739 901.52C383.113 900.869 383.619 900.363 384.259 900C384.91 899.627 385.641 899.44 386.451 899.44C387.273 899.44 387.998 899.621 388.627 899.984C389.257 900.347 389.747 900.859 390.099 901.52C390.462 902.171 390.643 902.933 390.643 903.808C390.643 903.872 390.638 903.947 390.627 904.032C390.627 904.117 390.622 904.197 390.611 904.272H383.395V903.168H389.811L389.187 903.552C389.198 903.008 389.086 902.523 388.851 902.096C388.617 901.669 388.291 901.339 387.875 901.104C387.47 900.859 386.995 900.736 386.451 900.736C385.918 900.736 385.443 900.859 385.027 901.104C384.611 901.339 384.286 901.675 384.051 902.112C383.817 902.539 383.699 903.029 383.699 903.584V903.84C383.699 904.405 383.827 904.912 384.083 905.36C384.35 905.797 384.718 906.139 385.187 906.384C385.657 906.629 386.195 906.752 386.803 906.752C387.305 906.752 387.758 906.667 388.163 906.496C388.579 906.325 388.942 906.069 389.251 905.728L390.099 906.72C389.715 907.168 389.235 907.509 388.659 907.744C388.094 907.979 387.459 908.096 386.755 908.096ZM395.208 908.096C394.504 908.096 393.832 908 393.192 907.808C392.563 907.616 392.067 907.381 391.704 907.104L392.344 905.888C392.707 906.133 393.155 906.341 393.688 906.512C394.222 906.683 394.766 906.768 395.32 906.768C396.035 906.768 396.547 906.667 396.856 906.464C397.176 906.261 397.336 905.979 397.336 905.616C397.336 905.349 397.24 905.141 397.048 904.992C396.856 904.843 396.6 904.731 396.28 904.656C395.971 904.581 395.624 904.517 395.24 904.464C394.856 904.4 394.472 904.325 394.088 904.24C393.704 904.144 393.352 904.016 393.032 903.856C392.712 903.685 392.456 903.456 392.264 903.168C392.072 902.869 391.976 902.475 391.976 901.984C391.976 901.472 392.12 901.024 392.408 900.64C392.696 900.256 393.102 899.963 393.624 899.76C394.158 899.547 394.787 899.44 395.512 899.44C396.067 899.44 396.627 899.509 397.192 899.648C397.768 899.776 398.238 899.963 398.6 900.208L397.944 901.424C397.56 901.168 397.16 900.992 396.744 900.896C396.328 900.8 395.912 900.752 395.496 900.752C394.824 900.752 394.323 900.864 393.992 901.088C393.662 901.301 393.496 901.579 393.496 901.92C393.496 902.208 393.592 902.432 393.784 902.592C393.987 902.741 394.243 902.859 394.552 902.944C394.872 903.029 395.224 903.104 395.608 903.168C395.992 903.221 396.376 903.296 396.76 903.392C397.144 903.477 397.491 903.6 397.8 903.76C398.12 903.92 398.376 904.144 398.568 904.432C398.771 904.72 398.872 905.104 398.872 905.584C398.872 906.096 398.723 906.539 398.424 906.912C398.126 907.285 397.704 907.579 397.16 907.792C396.616 907.995 395.966 908.096 395.208 908.096ZM403.224 908.096C402.52 908.096 401.848 908 401.208 907.808C400.579 907.616 400.083 907.381 399.72 907.104L400.36 905.888C400.723 906.133 401.171 906.341 401.704 906.512C402.237 906.683 402.781 906.768 403.336 906.768C404.051 906.768 404.563 906.667 404.872 906.464C405.192 906.261 405.352 905.979 405.352 905.616C405.352 905.349 405.256 905.141 405.064 904.992C404.872 904.843 404.616 904.731 404.296 904.656C403.987 904.581 403.64 904.517 403.256 904.464C402.872 904.4 402.488 904.325 402.104 904.24C401.72 904.144 401.368 904.016 401.048 903.856C400.728 903.685 400.472 903.456 400.28 903.168C400.088 902.869 399.992 902.475 399.992 901.984C399.992 901.472 400.136 901.024 400.424 900.64C400.712 900.256 401.117 899.963 401.64 899.76C402.173 899.547 402.803 899.44 403.528 899.44C404.083 899.44 404.643 899.509 405.208 899.648C405.784 899.776 406.253 899.963 406.616 900.208L405.96 901.424C405.576 901.168 405.176 900.992 404.76 900.896C404.344 900.8 403.928 900.752 403.512 900.752C402.84 900.752 402.339 900.864 402.008 901.088C401.677 901.301 401.512 901.579 401.512 901.92C401.512 902.208 401.608 902.432 401.8 902.592C402.003 902.741 402.259 902.859 402.568 902.944C402.888 903.029 403.24 903.104 403.624 903.168C404.008 903.221 404.392 903.296 404.776 903.392C405.16 903.477 405.507 903.6 405.816 903.76C406.136 903.92 406.392 904.144 406.584 904.432C406.787 904.72 406.888 905.104 406.888 905.584C406.888 906.096 406.739 906.539 406.44 906.912C406.141 907.285 405.72 907.579 405.176 907.792C404.632 907.995 403.981 908.096 403.224 908.096ZM416.736 908.096C415.883 908.096 415.126 907.909 414.464 907.536C413.803 907.163 413.28 906.651 412.896 906C412.512 905.339 412.32 904.592 412.32 903.76C412.32 902.917 412.512 902.171 412.896 901.52C413.28 900.869 413.803 900.363 414.464 900C415.126 899.627 415.883 899.44 416.736 899.44C417.579 899.44 418.331 899.627 418.992 900C419.664 900.363 420.187 900.869 420.56 901.52C420.944 902.16 421.136 902.907 421.136 903.76C421.136 904.603 420.944 905.349 420.56 906C420.187 906.651 419.664 907.163 418.992 907.536C418.331 907.909 417.579 908.096 416.736 908.096ZM416.736 906.752C417.28 906.752 417.766 906.629 418.192 906.384C418.63 906.139 418.971 905.792 419.216 905.344C419.462 904.885 419.584 904.357 419.584 903.76C419.584 903.152 419.462 902.629 419.216 902.192C418.971 901.744 418.63 901.397 418.192 901.152C417.766 900.907 417.28 900.784 416.736 900.784C416.192 900.784 415.707 900.907 415.28 901.152C414.854 901.397 414.512 901.744 414.256 902.192C414 902.629 413.872 903.152 413.872 903.76C413.872 904.357 414 904.885 414.256 905.344C414.512 905.792 414.854 906.139 415.28 906.384C415.707 906.629 416.192 906.752 416.736 906.752ZM423.485 908V898.768C423.485 897.936 423.725 897.275 424.205 896.784C424.695 896.283 425.389 896.032 426.285 896.032C426.615 896.032 426.93 896.075 427.229 896.16C427.538 896.235 427.799 896.357 428.013 896.528L427.549 897.696C427.389 897.568 427.207 897.472 427.005 897.408C426.802 897.333 426.589 897.296 426.365 897.296C425.917 897.296 425.575 897.424 425.341 897.68C425.106 897.925 424.989 898.293 424.989 898.784V899.92L425.021 900.624V908H423.485ZM422.045 900.784V899.52H427.453V900.784H422.045ZM436.894 908.096C436.03 908.096 435.257 907.909 434.574 907.536C433.902 907.163 433.374 906.651 432.99 906C432.606 905.349 432.414 904.603 432.414 903.76C432.414 902.917 432.606 902.171 432.99 901.52C433.374 900.869 433.902 900.363 434.574 900C435.257 899.627 436.03 899.44 436.894 899.44C437.662 899.44 438.345 899.595 438.942 899.904C439.55 900.203 440.02 900.651 440.35 901.248L439.182 902C438.905 901.584 438.564 901.28 438.158 901.088C437.764 900.885 437.337 900.784 436.878 900.784C436.324 900.784 435.828 900.907 435.39 901.152C434.953 901.397 434.606 901.744 434.35 902.192C434.094 902.629 433.966 903.152 433.966 903.76C433.966 904.368 434.094 904.896 434.35 905.344C434.606 905.792 434.953 906.139 435.39 906.384C435.828 906.629 436.324 906.752 436.878 906.752C437.337 906.752 437.764 906.656 438.158 906.464C438.564 906.261 438.905 905.952 439.182 905.536L440.35 906.272C440.02 906.859 439.55 907.312 438.942 907.632C438.345 907.941 437.662 908.096 436.894 908.096ZM442.339 908V899.52H443.811V901.824L443.667 901.248C443.901 900.661 444.296 900.213 444.851 899.904C445.405 899.595 446.088 899.44 446.899 899.44V900.928C446.835 900.917 446.771 900.912 446.707 900.912C446.653 900.912 446.6 900.912 446.547 900.912C445.725 900.912 445.075 901.157 444.595 901.648C444.115 902.139 443.875 902.848 443.875 903.776V908H442.339ZM452.49 908.096C451.583 908.096 450.783 907.909 450.09 907.536C449.407 907.163 448.874 906.651 448.49 906C448.116 905.349 447.93 904.603 447.93 903.76C447.93 902.917 448.111 902.171 448.474 901.52C448.847 900.869 449.354 900.363 449.994 900C450.644 899.627 451.375 899.44 452.186 899.44C453.007 899.44 453.732 899.621 454.362 899.984C454.991 900.347 455.482 900.859 455.834 901.52C456.196 902.171 456.378 902.933 456.378 903.808C456.378 903.872 456.372 903.947 456.362 904.032C456.362 904.117 456.356 904.197 456.346 904.272H449.13V903.168H455.546L454.922 903.552C454.932 903.008 454.82 902.523 454.586 902.096C454.351 901.669 454.026 901.339 453.61 901.104C453.204 900.859 452.73 900.736 452.186 900.736C451.652 900.736 451.178 900.859 450.762 901.104C450.346 901.339 450.02 901.675 449.786 902.112C449.551 902.539 449.434 903.029 449.434 903.584V903.84C449.434 904.405 449.562 904.912 449.818 905.36C450.084 905.797 450.452 906.139 450.922 906.384C451.391 906.629 451.93 906.752 452.538 906.752C453.039 906.752 453.492 906.667 453.898 906.496C454.314 906.325 454.676 906.069 454.986 905.728L455.834 906.72C455.45 907.168 454.97 907.509 454.394 907.744C453.828 907.979 453.194 908.096 452.49 908.096ZM463.54 908V906.208L463.46 905.872V902.816C463.46 902.165 463.268 901.664 462.884 901.312C462.511 900.949 461.946 900.768 461.188 900.768C460.687 900.768 460.196 900.853 459.716 901.024C459.236 901.184 458.831 901.403 458.5 901.68L457.86 900.528C458.298 900.176 458.82 899.909 459.428 899.728C460.047 899.536 460.692 899.44 461.364 899.44C462.527 899.44 463.423 899.723 464.052 900.288C464.682 900.853 464.996 901.717 464.996 902.88V908H463.54ZM460.756 908.096C460.127 908.096 459.572 907.989 459.092 907.776C458.623 907.563 458.26 907.269 458.004 906.896C457.748 906.512 457.62 906.08 457.62 905.6C457.62 905.141 457.727 904.725 457.94 904.352C458.164 903.979 458.522 903.68 459.012 903.456C459.514 903.232 460.186 903.12 461.028 903.12H463.716V904.224H461.092C460.324 904.224 459.807 904.352 459.54 904.608C459.274 904.864 459.14 905.173 459.14 905.536C459.14 905.952 459.306 906.288 459.636 906.544C459.967 906.789 460.426 906.912 461.012 906.912C461.588 906.912 462.09 906.784 462.516 906.528C462.954 906.272 463.268 905.899 463.46 905.408L463.764 906.464C463.562 906.965 463.204 907.365 462.692 907.664C462.18 907.952 461.535 908.096 460.756 908.096ZM470.751 908.096C469.897 908.096 469.236 907.867 468.767 907.408C468.297 906.949 468.063 906.293 468.063 905.44V897.664H469.599V905.376C469.599 905.835 469.711 906.187 469.935 906.432C470.169 906.677 470.5 906.8 470.927 906.8C471.407 906.8 471.807 906.667 472.127 906.4L472.607 907.504C472.372 907.707 472.089 907.856 471.759 907.952C471.439 908.048 471.103 908.096 470.751 908.096ZM466.623 900.784V899.52H472.031V900.784H466.623ZM474.464 908V899.52H476V908H474.464ZM475.232 897.888C474.933 897.888 474.682 897.792 474.48 897.6C474.288 897.408 474.192 897.173 474.192 896.896C474.192 896.608 474.288 896.368 474.48 896.176C474.682 895.984 474.933 895.888 475.232 895.888C475.53 895.888 475.776 895.984 475.968 896.176C476.17 896.357 476.272 896.587 476.272 896.864C476.272 897.152 476.176 897.397 475.984 897.6C475.792 897.792 475.541 897.888 475.232 897.888ZM483.461 899.44C484.154 899.44 484.762 899.573 485.285 899.84C485.818 900.107 486.234 900.512 486.533 901.056C486.831 901.6 486.981 902.288 486.981 903.12V908H485.445V903.296C485.445 902.475 485.242 901.856 484.837 901.44C484.442 901.024 483.882 900.816 483.157 900.816C482.613 900.816 482.138 900.923 481.733 901.136C481.327 901.349 481.013 901.664 480.789 902.08C480.575 902.496 480.469 903.013 480.469 903.632V908H478.933V899.52H480.405V901.808L480.165 901.2C480.442 900.645 480.869 900.213 481.445 899.904C482.021 899.595 482.693 899.44 483.461 899.44ZM493.535 911.2C492.757 911.2 491.999 911.088 491.263 910.864C490.538 910.651 489.946 910.341 489.487 909.936L490.223 908.752C490.618 909.093 491.103 909.36 491.679 909.552C492.255 909.755 492.858 909.856 493.487 909.856C494.49 909.856 495.226 909.621 495.695 909.152C496.165 908.683 496.399 907.968 496.399 907.008V905.216L496.559 903.536L496.479 901.84V899.52H497.935V906.848C497.935 908.341 497.562 909.44 496.815 910.144C496.069 910.848 494.975 911.2 493.535 911.2ZM493.343 907.648C492.522 907.648 491.786 907.477 491.135 907.136C490.495 906.784 489.983 906.299 489.599 905.68C489.226 905.061 489.039 904.347 489.039 903.536C489.039 902.715 489.226 902 489.599 901.392C489.983 900.773 490.495 900.293 491.135 899.952C491.786 899.611 492.522 899.44 493.343 899.44C494.069 899.44 494.73 899.589 495.327 899.888C495.925 900.176 496.399 900.624 496.751 901.232C497.114 901.84 497.295 902.608 497.295 903.536C497.295 904.453 497.114 905.216 496.751 905.824C496.399 906.432 495.925 906.891 495.327 907.2C494.73 907.499 494.069 907.648 493.343 907.648ZM493.519 906.304C494.085 906.304 494.586 906.187 495.023 905.952C495.461 905.717 495.802 905.392 496.047 904.976C496.303 904.56 496.431 904.08 496.431 903.536C496.431 902.992 496.303 902.512 496.047 902.096C495.802 901.68 495.461 901.36 495.023 901.136C494.586 900.901 494.085 900.784 493.519 900.784C492.954 900.784 492.447 900.901 491.999 901.136C491.562 901.36 491.215 901.68 490.959 902.096C490.714 902.512 490.591 902.992 490.591 903.536C490.591 904.08 490.714 904.56 490.959 904.976C491.215 905.392 491.562 905.717 491.999 905.952C492.447 906.187 492.954 906.304 493.519 906.304ZM510.431 908V906.208L510.351 905.872V902.816C510.351 902.165 510.159 901.664 509.775 901.312C509.402 900.949 508.836 900.768 508.079 900.768C507.578 900.768 507.087 900.853 506.607 901.024C506.127 901.184 505.722 901.403 505.391 901.68L504.751 900.528C505.188 900.176 505.711 899.909 506.319 899.728C506.938 899.536 507.583 899.44 508.255 899.44C509.418 899.44 510.314 899.723 510.943 900.288C511.572 900.853 511.887 901.717 511.887 902.88V908H510.431ZM507.647 908.096C507.018 908.096 506.463 907.989 505.983 907.776C505.514 907.563 505.151 907.269 504.895 906.896C504.639 906.512 504.511 906.08 504.511 905.6C504.511 905.141 504.618 904.725 504.831 904.352C505.055 903.979 505.412 903.68 505.903 903.456C506.404 903.232 507.076 903.12 507.919 903.12H510.607V904.224H507.983C507.215 904.224 506.698 904.352 506.431 904.608C506.164 904.864 506.031 905.173 506.031 905.536C506.031 905.952 506.196 906.288 506.527 906.544C506.858 906.789 507.316 906.912 507.903 906.912C508.479 906.912 508.98 906.784 509.407 906.528C509.844 906.272 510.159 905.899 510.351 905.408L510.655 906.464C510.452 906.965 510.095 907.365 509.583 907.664C509.071 907.952 508.426 908.096 507.647 908.096ZM519.257 899.44C519.951 899.44 520.559 899.573 521.081 899.84C521.615 900.107 522.031 900.512 522.329 901.056C522.628 901.6 522.777 902.288 522.777 903.12V908H521.241V903.296C521.241 902.475 521.039 901.856 520.633 901.44C520.239 901.024 519.679 900.816 518.953 900.816C518.409 900.816 517.935 900.923 517.529 901.136C517.124 901.349 516.809 901.664 516.585 902.08C516.372 902.496 516.265 903.013 516.265 903.632V908H514.729V899.52H516.201V901.808L515.961 901.2C516.239 900.645 516.665 900.213 517.241 899.904C517.817 899.595 518.489 899.44 519.257 899.44ZM535.181 908V906.208L535.101 905.872V902.816C535.101 902.165 534.909 901.664 534.525 901.312C534.152 900.949 533.586 900.768 532.829 900.768C532.328 900.768 531.837 900.853 531.357 901.024C530.877 901.184 530.472 901.403 530.141 901.68L529.501 900.528C529.938 900.176 530.461 899.909 531.069 899.728C531.688 899.536 532.333 899.44 533.005 899.44C534.168 899.44 535.064 899.723 535.693 900.288C536.322 900.853 536.637 901.717 536.637 902.88V908H535.181ZM532.397 908.096C531.768 908.096 531.213 907.989 530.733 907.776C530.264 907.563 529.901 907.269 529.645 906.896C529.389 906.512 529.261 906.08 529.261 905.6C529.261 905.141 529.368 904.725 529.581 904.352C529.805 903.979 530.162 903.68 530.653 903.456C531.154 903.232 531.826 903.12 532.669 903.12H535.357V904.224H532.733C531.965 904.224 531.448 904.352 531.181 904.608C530.914 904.864 530.781 905.173 530.781 905.536C530.781 905.952 530.946 906.288 531.277 906.544C531.608 906.789 532.066 906.912 532.653 906.912C533.229 906.912 533.73 906.784 534.157 906.528C534.594 906.272 534.909 905.899 535.101 905.408L535.405 906.464C535.202 906.965 534.845 907.365 534.333 907.664C533.821 907.952 533.176 908.096 532.397 908.096ZM543.175 908.096C542.311 908.096 541.538 907.909 540.855 907.536C540.183 907.163 539.655 906.651 539.271 906C538.887 905.349 538.695 904.603 538.695 903.76C538.695 902.917 538.887 902.171 539.271 901.52C539.655 900.869 540.183 900.363 540.855 900C541.538 899.627 542.311 899.44 543.175 899.44C543.943 899.44 544.626 899.595 545.223 899.904C545.831 900.203 546.301 900.651 546.631 901.248L545.463 902C545.186 901.584 544.845 901.28 544.439 901.088C544.045 900.885 543.618 900.784 543.159 900.784C542.605 900.784 542.109 900.907 541.671 901.152C541.234 901.397 540.887 901.744 540.631 902.192C540.375 902.629 540.247 903.152 540.247 903.76C540.247 904.368 540.375 904.896 540.631 905.344C540.887 905.792 541.234 906.139 541.671 906.384C542.109 906.629 542.605 906.752 543.159 906.752C543.618 906.752 544.045 906.656 544.439 906.464C544.845 906.261 545.186 905.952 545.463 905.536L546.631 906.272C546.301 906.859 545.831 907.312 545.223 907.632C544.626 907.941 543.943 908.096 543.175 908.096ZM552.191 908.096C551.327 908.096 550.554 907.909 549.871 907.536C549.199 907.163 548.671 906.651 548.287 906C547.903 905.349 547.711 904.603 547.711 903.76C547.711 902.917 547.903 902.171 548.287 901.52C548.671 900.869 549.199 900.363 549.871 900C550.554 899.627 551.327 899.44 552.191 899.44C552.959 899.44 553.642 899.595 554.239 899.904C554.847 900.203 555.316 900.651 555.647 901.248L554.479 902C554.202 901.584 553.86 901.28 553.455 901.088C553.06 900.885 552.634 900.784 552.175 900.784C551.62 900.784 551.124 900.907 550.687 901.152C550.25 901.397 549.903 901.744 549.647 902.192C549.391 902.629 549.263 903.152 549.263 903.76C549.263 904.368 549.391 904.896 549.647 905.344C549.903 905.792 550.25 906.139 550.687 906.384C551.124 906.629 551.62 906.752 552.175 906.752C552.634 906.752 553.06 906.656 553.455 906.464C553.86 906.261 554.202 905.952 554.479 905.536L555.647 906.272C555.316 906.859 554.847 907.312 554.239 907.632C553.642 907.941 552.959 908.096 552.191 908.096ZM561.143 908.096C560.289 908.096 559.532 907.909 558.871 907.536C558.209 907.163 557.687 906.651 557.303 906C556.919 905.339 556.727 904.592 556.727 903.76C556.727 902.917 556.919 902.171 557.303 901.52C557.687 900.869 558.209 900.363 558.871 900C559.532 899.627 560.289 899.44 561.143 899.44C561.985 899.44 562.737 899.627 563.399 900C564.071 900.363 564.593 900.869 564.967 901.52C565.351 902.16 565.543 902.907 565.543 903.76C565.543 904.603 565.351 905.349 564.967 906C564.593 906.651 564.071 907.163 563.399 907.536C562.737 907.909 561.985 908.096 561.143 908.096ZM561.143 906.752C561.687 906.752 562.172 906.629 562.599 906.384C563.036 906.139 563.377 905.792 563.623 905.344C563.868 904.885 563.991 904.357 563.991 903.76C563.991 903.152 563.868 902.629 563.623 902.192C563.377 901.744 563.036 901.397 562.599 901.152C562.172 900.907 561.687 900.784 561.143 900.784C560.599 900.784 560.113 900.907 559.687 901.152C559.26 901.397 558.919 901.744 558.663 902.192C558.407 902.629 558.279 903.152 558.279 903.76C558.279 904.357 558.407 904.885 558.663 905.344C558.919 905.792 559.26 906.139 559.687 906.384C560.113 906.629 560.599 906.752 561.143 906.752ZM571.235 908.096C570.51 908.096 569.87 907.963 569.315 907.696C568.771 907.429 568.344 907.024 568.035 906.48C567.736 905.925 567.587 905.232 567.587 904.4V899.52H569.123V904.224C569.123 905.056 569.32 905.68 569.715 906.096C570.12 906.512 570.686 906.72 571.411 906.72C571.944 906.72 572.408 906.613 572.803 906.4C573.198 906.176 573.502 905.856 573.715 905.44C573.928 905.013 574.035 904.501 574.035 903.904V899.52H575.571V908H574.115V905.712L574.355 906.32C574.078 906.885 573.662 907.323 573.107 907.632C572.552 907.941 571.928 908.096 571.235 908.096ZM583.023 899.44C583.716 899.44 584.324 899.573 584.847 899.84C585.38 900.107 585.796 900.512 586.095 901.056C586.394 901.6 586.543 902.288 586.543 903.12V908H585.007V903.296C585.007 902.475 584.804 901.856 584.399 901.44C584.004 901.024 583.444 900.816 582.719 900.816C582.175 900.816 581.7 900.923 581.295 901.136C580.89 901.349 580.575 901.664 580.351 902.08C580.138 902.496 580.031 903.013 580.031 903.632V908H578.495V899.52H579.967V901.808L579.727 901.2C580.004 900.645 580.431 900.213 581.007 899.904C581.583 899.595 582.255 899.44 583.023 899.44ZM592.298 908.096C591.444 908.096 590.783 907.867 590.314 907.408C589.844 906.949 589.61 906.293 589.61 905.44V897.664H591.146V905.376C591.146 905.835 591.258 906.187 591.482 906.432C591.716 906.677 592.047 906.8 592.474 906.8C592.954 906.8 593.354 906.667 593.674 906.4L594.154 907.504C593.919 907.707 593.636 907.856 593.306 907.952C592.986 908.048 592.65 908.096 592.298 908.096ZM588.17 900.784V899.52H593.578V900.784H588.17ZM596.535 908.096C596.236 908.096 595.98 907.995 595.767 907.792C595.554 907.579 595.447 907.312 595.447 906.992C595.447 906.672 595.554 906.411 595.767 906.208C595.98 906.005 596.236 905.904 596.535 905.904C596.823 905.904 597.068 906.005 597.271 906.208C597.484 906.411 597.591 906.672 597.591 906.992C597.591 907.312 597.484 907.579 597.271 907.792C597.068 907.995 596.823 908.096 596.535 908.096Z" fill="#E0EAFF" fill-opacity="0.75"/>
<rect x="339.5" y="926" width="16" height="8" rx="4" fill="#E0EAFF"/>
<rect x="359.5" y="926" width="8" height="8" rx="4" fill="#E0EAFF" fill-opacity="0.5"/>
<rect x="371.5" y="926" width="8" height="8" rx="4" fill="#E0EAFF" fill-opacity="0.5"/>
<path d="M275.796 608.973C358.76 608.973 426.016 541.786 426.016 458.907C426.016 376.028 358.76 308.841 275.796 308.841C192.831 308.841 125.575 376.028 125.575 458.907C125.575 541.786 192.831 608.973 275.796 608.973Z" fill="#F2F2F2"/>
<path d="M450.015 604.533C465.725 604.533 478.46 591.811 478.46 576.118C478.46 560.425 465.725 547.703 450.015 547.703C434.306 547.703 421.571 560.425 421.571 576.118C421.571 591.811 434.306 604.533 450.015 604.533Z" fill="#F2F2F2"/>
<path d="M593.125 668.467C599.507 668.467 604.68 663.298 604.68 656.923C604.68 650.548 599.507 645.38 593.125 645.38C586.743 645.38 581.569 650.548 581.569 656.923C581.569 663.298 586.743 668.467 593.125 668.467Z" fill="#F2F2F2"/>
<path d="M395.882 652.487C324.084 652.491 261.615 598.985 252.386 526.008L254.15 525.785C263.264 597.862 324.973 650.707 395.883 650.711C401.908 650.711 407.927 650.331 413.904 649.575C492.113 639.705 547.702 568.114 537.822 489.986L539.585 489.763C549.588 568.862 493.308 641.345 414.127 651.337C408.076 652.102 401.982 652.486 395.882 652.487Z" fill="#3F3D56"/>
<path d="M399.737 682.188H371.468C370.864 682.189 370.267 682.054 369.723 681.792C369.179 681.53 368.701 681.149 368.326 680.676C367.955 680.216 367.693 679.677 367.56 679.101C367.428 678.525 367.427 677.926 367.559 677.35C370.242 665.523 370.083 653.23 367.097 641.476C366.893 640.664 366.951 639.808 367.262 639.031C367.574 638.254 368.123 637.595 368.831 637.148C378.611 631.096 389.26 631.285 401.389 637.727C401.94 638.017 402.417 638.43 402.782 638.935C403.147 639.439 403.391 640.021 403.494 640.635C405.502 653.256 405.573 666.108 403.702 678.75C403.569 679.705 403.094 680.58 402.365 681.212C401.636 681.844 400.703 682.191 399.737 682.188Z" fill="#A4BCFD"/>
<path d="M270.85 531.234H242.581C241.977 531.235 241.38 531.1 240.836 530.838C240.292 530.576 239.814 530.195 239.439 529.722C239.068 529.261 238.806 528.723 238.673 528.147C238.54 527.571 238.54 526.972 238.672 526.396C241.364 514.528 241.195 502.191 238.178 490.401C237.988 489.625 238.034 488.81 238.311 488.06C238.588 487.31 239.083 486.66 239.733 486.194C254.27 475.75 265.718 476.053 273.759 487.096C274.122 487.6 274.362 488.18 274.463 488.792C276.611 501.696 276.73 514.856 274.815 527.796C274.682 528.751 274.207 529.626 273.478 530.258C272.749 530.89 271.815 531.237 270.85 531.234Z" fill="#CCCCCC"/>
<path d="M386.529 655.683H376.804C376.267 655.682 375.752 655.468 375.373 655.089C374.994 654.709 374.781 654.194 374.781 653.658C374.781 653.121 374.994 652.607 375.373 652.227C375.752 651.847 376.267 651.633 376.804 651.632H386.529C387.067 651.632 387.582 651.846 387.963 652.225C388.343 652.605 388.556 653.121 388.556 653.658C388.556 654.195 388.343 654.71 387.963 655.09C387.582 655.47 387.067 655.683 386.529 655.683Z" fill="white"/>
<path d="M398.419 663.687H376.804C376.267 663.686 375.752 663.472 375.373 663.092C374.994 662.712 374.781 662.198 374.781 661.661C374.781 661.125 374.994 660.61 375.373 660.231C375.752 659.851 376.267 659.637 376.804 659.636H398.419C398.956 659.637 399.471 659.851 399.85 660.231C400.23 660.61 400.443 661.125 400.443 661.661C400.443 662.198 400.23 662.712 399.85 663.092C399.471 663.472 398.956 663.686 398.419 663.687Z" fill="white"/>
<path d="M262.086 502.953H252.361C251.824 502.952 251.31 502.738 250.93 502.359C250.551 501.979 250.338 501.464 250.338 500.928C250.338 500.391 250.551 499.877 250.93 499.497C251.31 499.117 251.824 498.903 252.361 498.902H262.086C262.623 498.903 263.138 499.117 263.517 499.497C263.896 499.877 264.109 500.391 264.109 500.928C264.109 501.464 263.896 501.979 263.517 502.359C263.138 502.738 262.623 502.952 262.086 502.953Z" fill="white"/>
<path d="M262.086 510.057H252.361C251.824 510.056 251.31 509.842 250.93 509.462C250.551 509.083 250.338 508.568 250.338 508.032C250.338 507.495 250.551 506.98 250.93 506.601C251.31 506.221 251.824 506.007 252.361 506.006H262.086C262.623 506.007 263.138 506.221 263.517 506.601C263.896 506.98 264.109 507.495 264.109 508.032C264.109 508.568 263.896 509.083 263.517 509.462C263.138 509.842 262.623 510.056 262.086 510.057Z" fill="white"/>
<path d="M262.086 517.161H252.361C251.824 517.16 251.31 516.946 250.93 516.566C250.551 516.186 250.338 515.672 250.338 515.135C250.338 514.599 250.551 514.084 250.93 513.704C251.31 513.325 251.824 513.111 252.361 513.11H262.086C262.623 513.111 263.138 513.325 263.517 513.704C263.896 514.084 264.109 514.599 264.109 515.135C264.109 515.672 263.896 516.186 263.517 516.566C263.138 516.946 262.623 517.16 262.086 517.161Z" fill="white"/>
<path d="M651.327 564.598H560.959C558.537 564.595 556.215 563.632 554.503 561.922C552.79 560.211 551.827 557.892 551.824 555.472V499.871C551.827 497.452 552.79 495.132 554.503 493.422C556.215 491.711 558.537 490.749 560.959 490.746H651.327C653.749 490.749 656.071 491.711 657.783 493.422C659.496 495.132 660.459 497.452 660.462 499.871V555.472C660.459 557.892 659.496 560.211 657.783 561.922C656.071 563.633 653.749 564.595 651.327 564.598Z" fill="#E6E6E6"/>
<path d="M615.422 557.436H567.311C565.043 557.433 562.869 556.532 561.265 554.93C559.661 553.328 558.758 551.155 558.756 548.89V506.454C558.758 504.188 559.661 502.016 561.265 500.413C562.869 498.811 565.043 497.91 567.311 497.907H644.975C647.243 497.91 649.417 498.811 651.021 500.413C652.625 502.016 653.527 504.188 653.53 506.454V519.368C653.518 529.461 649.5 539.137 642.356 546.273C635.212 553.41 625.525 557.424 615.422 557.436Z" fill="white"/>
<path d="M637.227 521.144H575.059C574.521 521.144 574.005 520.931 573.625 520.551C573.245 520.171 573.031 519.656 573.031 519.119C573.031 518.582 573.245 518.067 573.625 517.687C574.005 517.307 574.521 517.094 575.059 517.094H637.227C637.765 517.094 638.281 517.307 638.661 517.687C639.041 518.067 639.255 518.582 639.255 519.119C639.255 519.656 639.041 520.171 638.661 520.551C638.281 520.931 637.765 521.144 637.227 521.144Z" fill="#A4BCFD"/>
<path d="M584.783 529.148H575.059C574.522 529.147 574.007 528.933 573.628 528.553C573.248 528.173 573.035 527.659 573.035 527.122C573.035 526.586 573.248 526.071 573.628 525.692C574.007 525.312 574.522 525.098 575.059 525.097H584.783C585.32 525.098 585.835 525.312 586.214 525.692C586.594 526.071 586.807 526.586 586.807 527.122C586.807 527.659 586.594 528.173 586.214 528.553C585.835 528.933 585.32 529.147 584.783 529.148Z" fill="#A4BCFD"/>
<path d="M602.007 537.151H575.059C574.521 537.151 574.005 536.938 573.625 536.558C573.245 536.178 573.031 535.663 573.031 535.126C573.031 534.589 573.245 534.073 573.625 533.694C574.005 533.314 574.521 533.1 575.059 533.1H602.007C602.545 533.1 603.061 533.314 603.441 533.694C603.821 534.073 604.035 534.589 604.035 535.126C604.035 535.663 603.821 536.178 603.441 536.558C603.061 536.938 602.545 537.151 602.007 537.151Z" fill="#A4BCFD"/>
<path d="M548.671 508.735C559.228 508.735 567.787 500.185 567.787 489.638C567.787 479.092 559.228 470.542 548.671 470.542C538.113 470.542 529.554 479.092 529.554 489.638C529.554 500.185 538.113 508.735 548.671 508.735Z" fill="#3F3D56"/>
<path d="M332.273 344.368C333.539 337.952 336.057 331.847 339.684 326.402C343.312 320.958 347.977 316.28 353.414 312.637C364.394 305.278 377.851 302.579 390.823 305.132C397.247 306.396 403.358 308.912 408.808 312.535C414.258 316.159 418.941 320.819 422.588 326.251C426.235 331.682 428.776 337.778 430.065 344.19C431.354 350.602 431.366 357.205 430.1 363.622L428.355 363.279C430.82 350.782 428.214 337.818 421.111 327.241C414.008 316.663 402.99 309.337 390.48 306.875C377.97 304.413 364.993 307.016 354.405 314.112C343.816 321.207 336.483 332.215 334.018 344.712L332.273 344.368Z" fill="#3F3D56"/>
<path d="M351.205 375.788L322.959 376.957C322.356 376.983 321.754 376.873 321.2 376.634C320.645 376.395 320.152 376.033 319.757 375.576C319.368 375.132 319.084 374.604 318.927 374.034C318.771 373.464 318.745 372.866 318.853 372.285C321.021 360.478 320.389 348.328 317.009 336.808C316.748 335.927 316.801 334.983 317.159 334.137C317.517 333.291 318.157 332.595 318.971 332.167C330.541 326.163 341.381 325.858 351.189 331.261C351.703 331.54 352.15 331.928 352.499 332.397C352.848 332.866 353.09 333.406 353.209 333.978C355.762 346.548 356.374 359.435 355.024 372.19C354.93 373.149 354.492 374.043 353.79 374.705C353.087 375.366 352.169 375.751 351.205 375.788Z" fill="#A4BCFD"/>
<path d="M350.009 357.321L328.412 358.215C328.146 358.226 327.88 358.185 327.63 358.093C327.38 358.002 327.15 357.862 326.954 357.682C326.758 357.502 326.599 357.285 326.487 357.043C326.375 356.802 326.312 356.541 326.301 356.275C326.29 356.009 326.331 355.743 326.423 355.493C326.515 355.243 326.655 355.014 326.835 354.818C327.016 354.623 327.233 354.464 327.475 354.353C327.717 354.241 327.978 354.178 328.245 354.167L349.841 353.273C350.107 353.262 350.373 353.304 350.623 353.395C350.873 353.487 351.103 353.627 351.298 353.807C351.494 353.987 351.653 354.204 351.765 354.445C351.877 354.687 351.94 354.948 351.951 355.213C351.962 355.479 351.921 355.744 351.829 355.994C351.737 356.244 351.597 356.473 351.417 356.669C351.237 356.865 351.02 357.023 350.778 357.135C350.536 357.247 350.275 357.31 350.009 357.321Z" fill="white"/>
<path d="M349.715 350.223L328.118 351.117C327.581 351.139 327.057 350.947 326.661 350.583C326.265 350.22 326.031 349.714 326.008 349.177C325.986 348.64 326.178 348.117 326.542 347.721C326.907 347.326 327.413 347.092 327.95 347.069L349.547 346.176C350.084 346.153 350.609 346.345 351.004 346.709C351.4 347.073 351.635 347.579 351.657 348.116C351.679 348.652 351.487 349.176 351.123 349.571C350.759 349.967 350.252 350.201 349.715 350.223Z" fill="white"/>
<path d="M536.053 366.852H445.685C443.263 366.849 440.942 365.887 439.229 364.176C437.517 362.465 436.553 360.146 436.551 357.726V302.125C436.553 299.706 437.517 297.387 439.229 295.676C440.942 293.965 443.263 293.003 445.685 293H536.053C538.475 293.003 540.797 293.965 542.509 295.676C544.222 297.387 545.185 299.706 545.188 302.125V357.726C545.185 360.146 544.222 362.465 542.509 364.176C540.797 365.887 538.475 366.849 536.053 366.852Z" fill="#E6E6E6"/>
<path d="M500.149 359.69H452.038C449.769 359.687 447.595 358.786 445.991 357.184C444.387 355.582 443.485 353.41 443.482 351.144V308.708C443.485 306.442 444.387 304.27 445.991 302.668C447.595 301.065 449.769 300.164 452.038 300.162H529.701C531.969 300.164 534.144 301.065 535.748 302.668C537.351 304.27 538.254 306.442 538.256 308.708V321.622C538.245 331.715 534.226 341.391 527.082 348.528C519.938 355.664 510.252 359.679 500.149 359.69Z" fill="white"/>
<path d="M521.953 323.399H459.785C459.247 323.399 458.732 323.185 458.351 322.805C457.971 322.425 457.757 321.91 457.757 321.373C457.757 320.836 457.971 320.321 458.351 319.941C458.732 319.561 459.247 319.348 459.785 319.348H521.953C522.491 319.348 523.007 319.561 523.387 319.941C523.767 320.321 523.981 320.836 523.981 321.373C523.981 321.91 523.767 322.425 523.387 322.805C523.007 323.185 522.491 323.399 521.953 323.399Z" fill="#A4BCFD"/>
<path d="M469.51 331.402H459.785C459.248 331.401 458.733 331.187 458.354 330.807C457.975 330.428 457.762 329.913 457.762 329.377C457.762 328.84 457.975 328.326 458.354 327.946C458.733 327.566 459.248 327.352 459.785 327.351H469.51C470.047 327.352 470.561 327.566 470.941 327.946C471.32 328.326 471.533 328.84 471.533 329.377C471.533 329.913 471.32 330.428 470.941 330.807C470.561 331.187 470.047 331.401 469.51 331.402Z" fill="#A4BCFD"/>
<path d="M486.734 339.406H459.785C459.247 339.406 458.731 339.192 458.351 338.812C457.971 338.433 457.757 337.917 457.757 337.38C457.757 336.843 457.971 336.328 458.351 335.948C458.731 335.568 459.247 335.355 459.785 335.355H486.734C487.271 335.356 487.785 335.57 488.165 335.949C488.544 336.329 488.757 336.844 488.757 337.38C488.757 337.917 488.544 338.431 488.165 338.811C487.785 339.191 487.271 339.405 486.734 339.406Z" fill="#A4BCFD"/>
<path d="M447.291 376.477C452.865 367.52 450.114 355.745 441.148 350.177C432.181 344.609 420.394 347.356 414.82 356.314C409.247 365.271 411.997 377.046 420.963 382.614C429.93 388.182 441.717 385.434 447.291 376.477Z" fill="#3F3D56"/>
<path d="M176.401 515.373C168.558 494.661 169.273 471.684 178.388 451.498C187.503 431.312 204.272 415.57 225.005 407.735C245.739 399.901 268.739 400.614 288.945 409.72C309.152 418.826 324.91 435.577 332.753 456.289L331.09 456.918C327.289 446.881 321.546 437.689 314.19 429.869C306.833 422.048 298.007 415.752 288.214 411.339C278.422 406.927 267.855 404.484 257.118 404.151C246.38 403.817 235.682 405.6 225.634 409.397C215.587 413.194 206.386 418.931 198.557 426.28C190.729 433.629 184.426 442.446 180.009 452.229C175.592 462.011 173.146 472.567 172.813 483.293C172.479 494.02 174.264 504.707 178.065 514.744L176.401 515.373Z" fill="#3F3D56"/>
<path d="M249.517 432.67H221.248C220.644 432.671 220.047 432.536 219.503 432.274C218.959 432.012 218.481 431.631 218.106 431.158C217.735 430.697 217.473 430.159 217.34 429.583C217.207 429.007 217.207 428.408 217.339 427.832C220.015 416.033 219.864 403.769 216.897 392.039C216.687 391.209 216.751 390.333 217.081 389.543C217.411 388.752 217.988 388.09 218.726 387.655C228.966 381.7 239.902 381.882 251.228 388.196C251.764 388.488 252.227 388.899 252.58 389.397C252.933 389.894 253.168 390.466 253.266 391.068C255.282 403.704 255.355 416.574 253.482 429.232C253.349 430.187 252.874 431.062 252.145 431.694C251.416 432.326 250.482 432.673 249.517 432.67Z" fill="#A4BCFD"/>
<path d="M236.309 405.277H226.584C226.047 405.276 225.532 405.062 225.153 404.682C224.773 404.303 224.56 403.788 224.56 403.252C224.56 402.715 224.773 402.201 225.153 401.821C225.532 401.441 226.047 401.227 226.584 401.226H236.309C236.846 401.227 237.36 401.441 237.74 401.821C238.119 402.201 238.332 402.715 238.332 403.252C238.332 403.788 238.119 404.303 237.74 404.682C237.36 405.062 236.846 405.276 236.309 405.277Z" fill="white"/>
<path d="M248.199 413.281H226.584C226.046 413.281 225.53 413.067 225.15 412.687C224.77 412.308 224.556 411.792 224.556 411.255C224.556 410.718 224.77 410.203 225.15 409.823C225.53 409.443 226.046 409.23 226.584 409.23H248.199C248.736 409.231 249.251 409.445 249.63 409.824C250.009 410.204 250.222 410.719 250.222 411.255C250.222 411.792 250.009 412.306 249.63 412.686C249.251 413.066 248.736 413.28 248.199 413.281Z" fill="white"/>
<path d="M156.503 514.254H66.1347C63.7129 514.251 61.391 513.289 59.6785 511.578C57.966 509.867 57.0027 507.548 57 505.128V449.528C57.0027 447.108 57.966 444.789 59.6785 443.078C61.391 441.367 63.7129 440.405 66.1347 440.402H156.503C158.924 440.405 161.246 441.367 162.959 443.078C164.671 444.789 165.635 447.108 165.637 449.528V505.128C165.635 507.548 164.671 509.867 162.959 511.578C161.246 513.289 158.924 514.251 156.503 514.254Z" fill="#E6E6E6"/>
<path d="M120.598 507.092H72.487C70.2188 507.09 68.0442 506.188 66.4403 504.586C64.8364 502.984 63.9342 500.812 63.9316 498.546V456.11C63.9342 453.844 64.8364 451.672 66.4403 450.07C68.0442 448.468 70.2188 447.566 72.487 447.564H150.151C152.419 447.566 154.593 448.468 156.197 450.07C157.801 451.672 158.703 453.844 158.706 456.11V469.024C158.694 479.117 154.675 488.793 147.531 495.93C140.387 503.066 130.701 507.081 120.598 507.092Z" fill="white"/>
<path d="M142.403 470.801H80.2344C79.6966 470.801 79.1809 470.587 78.8007 470.207C78.4204 469.828 78.2068 469.312 78.2068 468.775C78.2068 468.238 78.4204 467.723 78.8007 467.343C79.1809 466.963 79.6966 466.75 80.2344 466.75H142.403C142.941 466.75 143.456 466.963 143.837 467.343C144.217 467.723 144.43 468.238 144.43 468.775C144.43 469.312 144.217 469.828 143.837 470.207C143.456 470.587 142.941 470.801 142.403 470.801Z" fill="#A4BCFD"/>
<path d="M89.9591 478.804H80.2344C79.6973 478.803 79.1827 478.589 78.8033 478.21C78.424 477.83 78.211 477.315 78.211 476.779C78.211 476.242 78.424 475.728 78.8033 475.348C79.1827 474.968 79.6973 474.754 80.2344 474.753H89.9591C90.4962 474.754 91.0108 474.968 91.3901 475.348C91.7695 475.728 91.9825 476.242 91.9825 476.779C91.9825 477.315 91.7695 477.83 91.3901 478.21C91.0108 478.589 90.4962 478.803 89.9591 478.804Z" fill="#A4BCFD"/>
<path d="M107.183 486.808H80.2344C79.6973 486.807 79.1827 486.593 78.8033 486.213C78.424 485.833 78.211 485.319 78.211 484.782C78.211 484.246 78.424 483.731 78.8033 483.351C79.1827 482.972 79.6973 482.758 80.2344 482.757H107.183C107.721 482.757 108.236 482.97 108.617 483.35C108.997 483.73 109.211 484.245 109.211 484.782C109.211 485.319 108.997 485.835 108.617 486.215C108.236 486.594 107.721 486.808 107.183 486.808Z" fill="#A4BCFD"/>
<path d="M192.183 522.103C197.757 513.146 195.006 501.371 186.04 495.803C177.073 490.235 165.286 492.982 159.713 501.94C154.139 510.897 156.889 522.672 165.856 528.24C174.822 533.808 186.609 531.06 192.183 522.103Z" fill="#3F3D56"/>
<path d="M346.405 485.948H318.135C317.531 485.949 316.935 485.814 316.391 485.552C315.847 485.29 315.369 484.908 314.993 484.436C314.622 483.975 314.361 483.437 314.228 482.861C314.095 482.285 314.095 481.686 314.226 481.11C316.898 469.331 316.752 457.09 313.8 445.378C313.591 444.536 313.662 443.649 314.002 442.852C314.343 442.054 314.935 441.389 315.688 440.958C329.421 433.105 340.295 433.322 348.932 441.621C349.537 442.213 349.936 442.984 350.069 443.819C352.167 456.623 352.269 469.675 350.37 482.51C350.237 483.465 349.762 484.339 349.033 484.972C348.304 485.604 347.37 485.95 346.405 485.948Z" fill="#FF6584"/>
<path d="M334.974 459.443H325.249C324.712 459.442 324.197 459.228 323.818 458.848C323.439 458.469 323.226 457.954 323.226 457.418C323.226 456.881 323.439 456.366 323.818 455.987C324.197 455.607 324.712 455.393 325.249 455.392H334.974C335.511 455.393 336.026 455.607 336.405 455.987C336.784 456.366 336.997 456.881 336.997 457.418C336.997 457.954 336.784 458.469 336.405 458.848C336.026 459.228 335.511 459.442 334.974 459.443Z" fill="white"/>
<path d="M346.864 467.446H325.249C324.711 467.446 324.196 467.233 323.815 466.853C323.435 466.473 323.221 465.958 323.221 465.421C323.221 464.884 323.435 464.369 323.815 463.989C324.196 463.609 324.711 463.395 325.249 463.395H346.864C347.401 463.397 347.916 463.61 348.295 463.99C348.675 464.37 348.888 464.884 348.888 465.421C348.888 465.957 348.675 466.472 348.295 466.852C347.916 467.231 347.401 467.445 346.864 467.446Z" fill="white"/>
<defs>
<radialGradient id="paint0_radial_5_947" cx="0" cy="0" r="1" gradientUnits="userSpaceOnUse" gradientTransform="translate(360 512) rotate(90) scale(303)">
<stop stop-color="#444CE7" stop-opacity="0.81"/>
<stop offset="1" stop-color="#444CE7" stop-opacity="0.29"/>
</radialGradient>
<linearGradient id="paint1_linear_5_947" x1="232.047" y1="209" x2="417.757" y2="806.559" gradientUnits="userSpaceOnUse">
<stop stop-color="#444CE7" stop-opacity="0.81"/>
<stop offset="1" stop-opacity="0"/>
</linearGradient>
<radialGradient id="paint2_radial_5_947" cx="0" cy="0" r="1" gradientUnits="userSpaceOnUse" gradientTransform="translate(360 511) rotate(90) scale(264)">
<stop stop-color="#444CE7" stop-opacity="0.81"/>
<stop offset="1" stop-color="#444CE7" stop-opacity="0.29"/>
</radialGradient>
<linearGradient id="paint3_linear_5_947" x1="360" y1="247" x2="413.333" y2="745.667" gradientUnits="userSpaceOnUse">
<stop stop-color="#A4BCFD"/>
<stop offset="1" stop-color="#444CE7" stop-opacity="0.81"/>
</linearGradient>
</defs>
</svg>
