<svg width="720" height="1024" viewBox="0 0 720 1024" fill="none" xmlns="http://www.w3.org/2000/svg">
<rect width="720" height="1024" fill="#6172F3"/>
<circle cx="360" cy="512" r="303" fill="url(#paint0_radial_3_235)" fill-opacity="0.2"/>
<circle cx="360" cy="512" r="303" fill="url(#paint1_linear_3_235)" fill-opacity="0.2"/>
<circle cx="360" cy="511" r="264" fill="url(#paint2_radial_3_235)" fill-opacity="0.2"/>
<circle cx="360" cy="511" r="264" fill="url(#paint3_linear_3_235)" fill-opacity="0.2"/>
<g clip-path="url(#clip0_3_235)">
<path d="M653 478.552H652.01V451.39C652.01 449.326 651.604 447.282 650.816 445.374C650.027 443.467 648.871 441.734 647.414 440.274C645.957 438.815 644.227 437.657 642.324 436.867C640.42 436.077 638.379 435.67 636.319 435.67H578.879C576.818 435.67 574.778 436.077 572.874 436.867C570.97 437.657 569.24 438.815 567.783 440.274C566.326 441.734 565.17 443.467 564.382 445.374C563.593 447.282 563.187 449.326 563.187 451.39V600.401C563.187 602.465 563.593 604.509 564.382 606.417C565.17 608.324 566.326 610.057 567.783 611.517C569.24 612.976 570.97 614.134 572.874 614.924C574.778 615.714 576.818 616.121 578.879 616.121H636.319C638.379 616.121 640.42 615.714 642.324 614.924C644.227 614.134 645.957 612.976 647.414 611.517C648.871 610.057 650.027 608.324 650.816 606.417C651.604 604.509 652.01 602.465 652.01 600.401V497.886H653V478.552Z" fill="#3F3D56"/>
<path d="M648.671 452.314V601.108C648.671 604.222 647.436 607.208 645.238 609.41C643.041 611.612 640.06 612.849 636.951 612.849H579.235C577.697 612.849 576.173 612.545 574.751 611.955C573.33 611.365 572.038 610.5 570.95 609.409C569.862 608.319 569 607.025 568.411 605.6C567.823 604.176 567.52 602.649 567.521 601.108V452.314C567.521 449.201 568.755 446.216 570.952 444.015C573.149 441.814 576.128 440.578 579.235 440.578H586.237C585.894 441.425 585.763 442.343 585.857 443.252C585.951 444.162 586.266 445.034 586.775 445.793C587.284 446.551 587.971 447.173 588.776 447.603C589.581 448.033 590.48 448.259 591.392 448.26H624.299C625.213 448.262 626.113 448.038 626.919 447.608C627.726 447.179 628.414 446.557 628.924 445.797C629.433 445.038 629.748 444.164 629.841 443.254C629.933 442.344 629.8 441.425 629.454 440.578H636.951C640.059 440.578 643.039 441.814 645.237 444.015C647.435 446.216 648.67 449.201 648.671 452.314Z" fill="#D0CDE1"/>
<path d="M637.745 516.756H570.652V534.894H637.745V516.756Z" fill="#A4BCFD"/>
<path d="M640.407 531.693H575.444C575.02 531.693 574.614 531.524 574.315 531.224C574.015 530.924 573.847 530.517 573.846 530.093V514.089C573.847 513.665 574.015 513.258 574.315 512.958C574.614 512.658 575.02 512.489 575.444 512.489H640.407C640.831 512.489 641.237 512.658 641.536 512.958C641.836 513.258 642.004 513.665 642.005 514.089V530.093C642.004 530.517 641.836 530.924 641.536 531.224C641.237 531.524 640.831 531.693 640.407 531.693ZM575.444 513.556C575.303 513.556 575.167 513.612 575.068 513.712C574.968 513.812 574.912 513.948 574.911 514.089V530.093C574.912 530.234 574.968 530.37 575.068 530.47C575.167 530.57 575.303 530.626 575.444 530.626H640.407C640.548 530.626 640.684 530.57 640.784 530.47C640.883 530.37 640.939 530.234 640.94 530.093V514.089C640.939 513.948 640.883 513.812 640.784 513.712C640.684 513.612 640.548 513.556 640.407 513.556H575.444Z" fill="#3F3D56"/>
<path d="M586.626 526.892H578.106V527.959H586.626V526.892Z" fill="#3F3D56"/>
<path d="M598.341 526.892H589.821V527.959H598.341V526.892Z" fill="#3F3D56"/>
<path d="M610.055 526.892H601.536V527.959H610.055V526.892Z" fill="#3F3D56"/>
<path d="M621.77 526.892H613.25V527.959H621.77V526.892Z" fill="#3F3D56"/>
<path d="M633.485 526.892H624.965V527.959H633.485V526.892Z" fill="#3F3D56"/>
<path opacity="0.1" d="M648.671 585.979V601.108C648.671 604.222 647.436 607.208 645.238 609.41C643.041 611.612 640.06 612.849 636.951 612.849H579.235C577.697 612.849 576.173 612.545 574.751 611.955C573.33 611.365 572.038 610.5 570.95 609.409C569.862 608.319 569 607.025 568.411 605.6C567.823 604.176 567.52 602.649 567.521 601.108V531.512L648.671 585.979Z" fill="black"/>
<path d="M372.035 572.237H120.169V696H372.035V572.237Z" fill="#D0CDE1"/>
<path opacity="0.1" d="M308.003 696H121.234C120.952 695.999 120.682 695.886 120.482 695.687C120.283 695.487 120.17 695.216 120.169 694.933V573.303C120.17 573.021 120.283 572.75 120.482 572.55C120.682 572.35 120.952 572.237 121.234 572.237H123.599L308.003 696Z" fill="black"/>
<path d="M627.095 588.774H236.784V589.841H627.095V588.774Z" fill="#3F3D56"/>
<path d="M360.182 329.303H248.632V327H198.051V329.303H86.0412C85.0504 329.303 84.0692 329.499 83.1537 329.879C82.2382 330.259 81.4064 330.816 80.7058 331.517C80.0051 332.219 79.4493 333.053 79.0701 333.97C78.6909 334.887 78.4957 335.87 78.4957 336.863V489.89C78.4957 491.895 79.2907 493.817 80.7057 495.235C82.1208 496.653 84.04 497.449 86.0412 497.449H360.182C362.184 497.449 364.103 496.653 365.518 495.235C366.933 493.817 367.728 491.895 367.728 489.89V336.863C367.728 335.87 367.533 334.887 367.154 333.97C366.774 333.053 366.219 332.219 365.518 331.517C364.817 330.816 363.985 330.259 363.07 329.879C362.155 329.499 361.173 329.303 360.182 329.303Z" fill="#3F3D56"/>
<path d="M357.61 342.661H88.6142V494.687H357.61V342.661Z" fill="#D0CDE1"/>
<path d="M222.882 338.517C224.406 338.517 225.641 337.279 225.641 335.753C225.641 334.226 224.406 332.989 222.882 332.989C221.358 332.989 220.123 334.226 220.123 335.753C220.123 337.279 221.358 338.517 222.882 338.517Z" fill="#A4BCFD"/>
<path d="M168.625 399.395H162.236C161.812 399.394 161.406 399.225 161.107 398.925C160.807 398.625 160.639 398.218 160.638 397.794V391.393C160.639 390.968 160.807 390.562 161.107 390.261C161.406 389.961 161.812 389.793 162.236 389.792H168.625C169.049 389.793 169.455 389.961 169.755 390.261C170.054 390.562 170.222 390.968 170.223 391.393V397.794C170.222 398.218 170.054 398.625 169.755 398.925C169.455 399.225 169.049 399.394 168.625 399.395ZM162.236 390.859C162.094 390.859 161.959 390.916 161.859 391.016C161.759 391.116 161.703 391.251 161.703 391.393V397.794C161.703 397.936 161.759 398.071 161.859 398.171C161.959 398.271 162.094 398.327 162.236 398.328H168.625C168.767 398.327 168.902 398.271 169.002 398.171C169.102 398.071 169.158 397.936 169.158 397.794V391.393C169.158 391.251 169.102 391.116 169.002 391.016C168.902 390.916 168.767 390.859 168.625 390.859H162.236Z" fill="#3F3D56"/>
<path d="M282.577 398.328H161.171V399.395H282.577V398.328Z" fill="#3F3D56"/>
<path d="M279.382 427.668H251.161V436.204H279.382V427.668Z" fill="#A4BCFD"/>
<path d="M281.512 434.07H255.42C254.997 434.069 254.591 433.9 254.291 433.6C253.992 433.3 253.824 432.894 253.823 432.469V426.068C253.824 425.643 253.992 425.237 254.291 424.937C254.591 424.637 254.997 424.468 255.42 424.467H281.512C281.936 424.468 282.342 424.637 282.641 424.937C282.941 425.237 283.109 425.643 283.11 426.068V432.469C283.109 432.894 282.941 433.3 282.641 433.6C282.342 433.9 281.936 434.069 281.512 434.07ZM255.42 425.534C255.279 425.534 255.144 425.591 255.044 425.691C254.944 425.791 254.888 425.926 254.888 426.068V432.469C254.888 432.611 254.944 432.746 255.044 432.846C255.144 432.946 255.279 433.003 255.42 433.003H281.512C281.653 433.003 281.789 432.946 281.889 432.846C281.988 432.746 282.045 432.611 282.045 432.469V426.068C282.045 425.926 281.988 425.791 281.889 425.691C281.789 425.591 281.653 425.534 281.512 425.534H255.42Z" fill="#3F3D56"/>
<path d="M495.039 437.27H441.79V474.613H495.039V437.27Z" fill="#A4BCFD"/>
<path d="M500.364 471.679H449.245C448.68 471.678 448.139 471.453 447.74 471.053C447.34 470.653 447.116 470.111 447.115 469.545V434.336C447.116 433.771 447.34 433.228 447.74 432.828C448.139 432.428 448.68 432.203 449.245 432.203H500.364C500.928 432.203 501.47 432.428 501.869 432.828C502.268 433.228 502.493 433.771 502.494 434.336V469.545C502.493 470.111 502.268 470.653 501.869 471.053C501.47 471.453 500.928 471.678 500.364 471.679ZM449.245 434.336V469.545H500.365L500.364 434.336H449.245Z" fill="#3F3D56"/>
<path d="M494.506 433.003H492.376C492.376 428.334 490.525 423.856 487.23 420.555C483.934 417.253 479.465 415.398 474.804 415.398C470.144 415.398 465.674 417.253 462.379 420.555C459.084 423.856 457.232 428.334 457.232 433.003H455.102C455.102 427.768 457.178 422.747 460.873 419.046C464.568 415.344 469.579 413.265 474.804 413.265C480.03 413.265 485.041 415.344 488.736 419.046C492.431 422.747 494.506 427.768 494.506 433.003Z" fill="#3F3D56"/>
<path d="M480.129 447.673C480.13 446.744 479.889 445.831 479.43 445.024C478.97 444.217 478.309 443.544 477.51 443.072C476.711 442.6 475.804 442.345 474.876 442.333C473.949 442.32 473.035 442.55 472.224 443C471.413 443.45 470.733 444.105 470.252 444.899C469.771 445.693 469.505 446.6 469.481 447.528C469.457 448.457 469.675 449.376 470.114 450.194C470.554 451.012 471.199 451.701 471.985 452.193V457.919C471.985 458.289 472.058 458.657 472.2 458.999C472.342 459.342 472.549 459.653 472.811 459.916C473.073 460.178 473.383 460.386 473.725 460.528C474.067 460.67 474.434 460.743 474.804 460.743C475.552 460.743 476.269 460.445 476.798 459.916C477.326 459.386 477.623 458.668 477.623 457.919V452.193C478.39 451.715 479.022 451.049 479.46 450.258C479.899 449.467 480.129 448.578 480.129 447.673Z" fill="#3F3D56"/>
<path d="M226.933 627.183H218.413V628.25H226.933V627.183Z" fill="#3F3D56"/>
<path d="M238.647 627.183H230.127V628.25H238.647V627.183Z" fill="#3F3D56"/>
<path d="M250.362 627.183H241.842V628.25H250.362V627.183Z" fill="#3F3D56"/>
<path d="M262.077 627.183H253.557V628.25H262.077V627.183Z" fill="#3F3D56"/>
<path d="M273.791 627.183H265.271V628.25H273.791V627.183Z" fill="#3F3D56"/>
<path d="M383.217 686.931H133.481C132.917 686.931 132.375 686.706 131.976 686.306C131.577 685.905 131.352 685.363 131.352 684.797V563.168C131.352 562.602 131.577 562.06 131.976 561.66C132.375 561.26 132.917 561.035 133.481 561.034H383.217C383.781 561.034 384.323 561.259 384.722 561.66C385.121 562.06 385.346 562.602 385.347 563.168V684.797C385.346 685.363 385.121 685.906 384.722 686.306C384.323 686.706 383.781 686.931 383.217 686.931ZM133.481 563.168V684.797H383.218L383.217 563.168H133.481Z" fill="#3F3D56"/>
<path d="M144.664 581.305C146.428 581.305 147.859 579.872 147.859 578.105C147.859 576.337 146.428 574.904 144.664 574.904C142.899 574.904 141.469 576.337 141.469 578.105C141.469 579.872 142.899 581.305 144.664 581.305Z" fill="#3F3D56"/>
<path d="M155.846 581.305C157.61 581.305 159.041 579.872 159.041 578.105C159.041 576.337 157.61 574.904 155.846 574.904C154.081 574.904 152.651 576.337 152.651 578.105C152.651 579.872 154.081 581.305 155.846 581.305Z" fill="#3F3D56"/>
<path d="M167.028 581.305C168.792 581.305 170.223 579.872 170.223 578.105C170.223 576.337 168.792 574.904 167.028 574.904C165.263 574.904 163.833 576.337 163.833 578.105C163.833 579.872 165.263 581.305 167.028 581.305Z" fill="#3F3D56"/>
<path d="M282.045 634.652H210.159C209.736 634.651 209.33 634.482 209.03 634.182C208.731 633.882 208.562 633.476 208.562 633.051V614.914C208.562 614.489 208.731 614.082 209.03 613.782C209.33 613.482 209.736 613.314 210.159 613.313H282.045C282.468 613.314 282.874 613.482 283.174 613.782C283.473 614.082 283.642 614.489 283.642 614.914V633.051C283.642 633.476 283.473 633.882 283.174 634.182C282.874 634.482 282.468 634.651 282.045 634.652ZM210.159 614.38C210.018 614.38 209.883 614.437 209.783 614.537C209.683 614.637 209.627 614.772 209.627 614.914V633.051C209.627 633.193 209.683 633.328 209.783 633.428C209.883 633.528 210.018 633.585 210.159 633.585H282.045C282.186 633.585 282.321 633.528 282.421 633.428C282.521 633.328 282.577 633.193 282.577 633.051V614.914C282.577 614.772 282.521 614.637 282.421 614.537C282.321 614.437 282.186 614.38 282.045 614.38H210.159Z" fill="#3F3D56"/>
<path d="M300.149 635.185C305.443 635.185 309.734 630.886 309.734 625.583C309.734 620.28 305.443 615.981 300.149 615.981C294.856 615.981 290.564 620.28 290.564 625.583C290.564 630.886 294.856 635.185 300.149 635.185Z" fill="#A4BCFD"/>
<path d="M303.344 634.118C301.343 634.118 299.387 633.524 297.723 632.41C296.06 631.296 294.763 629.713 293.997 627.861C293.231 626.009 293.031 623.971 293.421 622.005C293.812 620.039 294.775 618.233 296.19 616.815C297.605 615.398 299.408 614.433 301.37 614.041C303.333 613.65 305.367 613.851 307.216 614.618C309.064 615.385 310.645 616.684 311.756 618.351C312.868 620.018 313.461 621.978 313.461 623.982C313.458 626.67 312.391 629.246 310.495 631.146C308.598 633.046 306.026 634.115 303.344 634.118ZM303.344 614.914C301.554 614.914 299.804 615.445 298.315 616.442C296.826 617.438 295.666 618.855 294.981 620.512C294.296 622.169 294.117 623.992 294.466 625.752C294.815 627.511 295.677 629.127 296.943 630.395C298.209 631.663 299.822 632.527 301.578 632.877C303.334 633.227 305.154 633.047 306.808 632.361C308.462 631.675 309.876 630.512 310.871 629.021C311.865 627.529 312.396 625.776 312.396 623.982C312.394 621.578 311.439 619.273 309.742 617.573C308.045 615.873 305.744 614.916 303.344 614.914Z" fill="#3F3D56"/>
<path d="M303.486 627.768L298.331 622.603L299.837 621.094L303.202 624.465L312.591 611.098L314.332 612.327L303.486 627.768Z" fill="#3F3D56"/>
<path opacity="0.1" d="M297.971 494.687H88.6141V354.178L297.971 494.687Z" fill="black"/>
<path d="M375.281 491.921H349.028V490.026C349.028 489.977 349.019 489.928 349 489.882C348.981 489.837 348.953 489.795 348.918 489.76C348.884 489.726 348.842 489.698 348.797 489.679C348.751 489.66 348.703 489.65 348.653 489.65H339.652C339.603 489.65 339.554 489.66 339.509 489.679C339.463 489.698 339.422 489.726 339.387 489.76C339.352 489.795 339.325 489.837 339.306 489.882C339.287 489.928 339.277 489.977 339.277 490.026V491.921H333.652V490.026C333.652 489.977 333.642 489.928 333.623 489.882C333.604 489.837 333.577 489.795 333.542 489.76C333.507 489.726 333.466 489.698 333.42 489.679C333.375 489.66 333.326 489.65 333.277 489.65H324.276C324.227 489.65 324.178 489.66 324.132 489.679C324.087 489.698 324.045 489.726 324.011 489.76C323.976 489.795 323.948 489.837 323.929 489.882C323.91 489.928 323.901 489.977 323.901 490.026V491.921H318.275V490.026C318.275 489.977 318.266 489.928 318.247 489.882C318.228 489.837 318.2 489.795 318.165 489.76C318.131 489.726 318.089 489.698 318.044 489.679C317.998 489.66 317.949 489.65 317.9 489.65H308.899C308.85 489.65 308.801 489.66 308.756 489.679C308.71 489.698 308.669 489.726 308.634 489.76C308.599 489.795 308.572 489.837 308.553 489.882C308.534 489.928 308.524 489.977 308.524 490.026V491.921H302.899V490.026C302.899 489.977 302.889 489.928 302.87 489.882C302.851 489.837 302.824 489.795 302.789 489.76C302.754 489.726 302.713 489.698 302.667 489.679C302.622 489.66 302.573 489.65 302.524 489.65H293.523C293.473 489.65 293.425 489.66 293.379 489.679C293.334 489.698 293.292 489.726 293.258 489.76C293.223 489.795 293.195 489.837 293.176 489.882C293.157 489.928 293.148 489.977 293.148 490.026V491.921H287.522V490.026C287.522 489.977 287.512 489.928 287.494 489.882C287.475 489.837 287.447 489.795 287.412 489.76C287.377 489.726 287.336 489.698 287.291 489.679C287.245 489.66 287.196 489.65 287.147 489.65H278.146C278.097 489.65 278.048 489.66 278.003 489.679C277.957 489.698 277.916 489.726 277.881 489.76C277.846 489.795 277.819 489.837 277.8 489.882C277.781 489.928 277.771 489.977 277.771 490.026V491.921H272.146V490.026C272.146 489.977 272.136 489.928 272.117 489.882C272.098 489.837 272.071 489.795 272.036 489.76C272.001 489.726 271.96 489.698 271.914 489.679C271.869 489.66 271.82 489.65 271.771 489.65H262.77C262.72 489.65 262.672 489.66 262.626 489.679C262.581 489.698 262.539 489.726 262.504 489.76C262.47 489.795 262.442 489.837 262.423 489.882C262.404 489.928 262.395 489.977 262.395 490.026V491.921H256.769V490.026C256.769 489.977 256.759 489.928 256.741 489.882C256.722 489.837 256.694 489.795 256.659 489.76C256.624 489.726 256.583 489.698 256.538 489.679C256.492 489.66 256.443 489.65 256.394 489.65H185.887C185.838 489.65 185.789 489.66 185.743 489.679C185.698 489.698 185.657 489.726 185.622 489.76C185.587 489.795 185.559 489.837 185.54 489.882C185.522 489.928 185.512 489.977 185.512 490.026V491.921H179.886V490.026C179.886 489.977 179.877 489.928 179.858 489.882C179.839 489.837 179.811 489.795 179.776 489.76C179.742 489.726 179.7 489.698 179.655 489.679C179.609 489.66 179.561 489.65 179.511 489.65H170.51C170.461 489.65 170.412 489.66 170.367 489.679C170.321 489.698 170.28 489.726 170.245 489.76C170.21 489.795 170.183 489.837 170.164 489.882C170.145 489.928 170.135 489.977 170.135 490.026V491.921H164.51V490.026C164.51 489.977 164.5 489.928 164.481 489.882C164.462 489.837 164.435 489.795 164.4 489.76C164.365 489.726 164.324 489.698 164.278 489.679C164.233 489.66 164.184 489.65 164.135 489.65H155.134C155.085 489.65 155.036 489.66 154.99 489.679C154.945 489.698 154.903 489.726 154.869 489.76C154.834 489.795 154.806 489.837 154.787 489.882C154.769 489.928 154.759 489.977 154.759 490.026V491.921H149.133V490.026C149.133 489.977 149.124 489.928 149.105 489.882C149.086 489.837 149.058 489.795 149.023 489.76C148.989 489.726 148.947 489.698 148.902 489.679C148.856 489.66 148.807 489.65 148.758 489.65H139.757C139.708 489.65 139.659 489.66 139.614 489.679C139.568 489.698 139.527 489.726 139.492 489.76C139.457 489.795 139.43 489.837 139.411 489.882C139.392 489.928 139.382 489.977 139.382 490.026V491.921H133.757V490.026C133.757 489.977 133.747 489.928 133.728 489.882C133.709 489.837 133.682 489.795 133.647 489.76C133.612 489.726 133.571 489.698 133.525 489.679C133.48 489.66 133.431 489.65 133.382 489.65H124.381C124.331 489.65 124.283 489.66 124.237 489.679C124.192 489.698 124.15 489.726 124.116 489.76C124.081 489.795 124.053 489.837 124.034 489.882C124.015 489.928 124.006 489.977 124.006 490.026V491.921H118.38V490.026C118.38 489.977 118.37 489.928 118.352 489.882C118.333 489.837 118.305 489.795 118.27 489.76C118.236 489.726 118.194 489.698 118.149 489.679C118.103 489.66 118.054 489.65 118.005 489.65H109.004C108.955 489.65 108.906 489.66 108.861 489.679C108.815 489.698 108.774 489.726 108.739 489.76C108.704 489.795 108.677 489.837 108.658 489.882C108.639 489.928 108.629 489.977 108.629 490.026V491.921H103.004V490.026C103.004 489.977 102.994 489.928 102.975 489.882C102.956 489.837 102.929 489.795 102.894 489.76C102.859 489.726 102.818 489.698 102.772 489.679C102.727 489.66 102.678 489.65 102.629 489.65H93.6277C93.5784 489.65 93.5297 489.66 93.4841 489.679C93.4386 489.698 93.3973 489.726 93.3625 489.76C93.3277 489.795 93.3 489.837 93.2812 489.882C93.2623 489.928 93.2526 489.977 93.2526 490.026V491.921H76.0009C74.8189 491.921 73.6484 492.154 72.5564 492.607C71.4644 493.061 70.4721 493.725 69.6363 494.562C68.8005 495.4 68.1375 496.394 67.6852 497.488C67.2328 498.582 67 499.754 67 500.938V505.016C67 507.408 67.9483 509.701 69.6363 511.392C71.3243 513.083 73.6137 514.033 76.0009 514.033H375.281C376.463 514.033 377.633 513.8 378.725 513.347C379.817 512.894 380.81 512.23 381.646 511.392C382.481 510.555 383.144 509.561 383.597 508.467C384.049 507.373 384.282 506.2 384.282 505.016V500.938C384.282 499.754 384.049 498.582 383.597 497.488C383.144 496.394 382.481 495.4 381.646 494.562C380.81 493.725 379.817 493.061 378.725 492.607C377.633 492.154 376.463 491.921 375.281 491.921Z" fill="#3F3D56"/>
<path d="M293.227 443.139H152.651C152.227 443.138 151.821 442.969 151.522 442.669C151.222 442.369 151.054 441.962 151.053 441.538V382.857C151.054 382.433 151.222 382.026 151.522 381.726C151.821 381.426 152.227 381.257 152.651 381.257H293.227C293.65 381.257 294.057 381.426 294.356 381.726C294.655 382.026 294.824 382.433 294.824 382.857V441.538C294.824 441.962 294.655 442.369 294.356 442.669C294.057 442.969 293.65 443.138 293.227 443.139ZM152.651 382.324C152.51 382.324 152.374 382.38 152.275 382.48C152.175 382.58 152.119 382.716 152.118 382.857V441.538C152.119 441.68 152.175 441.815 152.275 441.915C152.374 442.015 152.51 442.071 152.651 442.072H293.227C293.368 442.071 293.503 442.015 293.603 441.915C293.703 441.815 293.759 441.68 293.759 441.538V382.857C293.759 382.716 293.703 382.58 293.603 382.48C293.503 382.38 293.368 382.324 293.227 382.324H152.651Z" fill="#3F3D56"/>
<path d="M168.625 415.398H162.236C161.812 415.398 161.406 415.229 161.107 414.929C160.807 414.629 160.639 414.222 160.638 413.798V407.397C160.639 406.972 160.807 406.565 161.107 406.265C161.406 405.965 161.812 405.797 162.236 405.796H168.625C169.049 405.797 169.455 405.965 169.755 406.265C170.054 406.565 170.222 406.972 170.223 407.397V413.798C170.222 414.222 170.054 414.629 169.755 414.929C169.455 415.229 169.049 415.398 168.625 415.398ZM162.236 406.863C162.094 406.863 161.959 406.92 161.859 407.02C161.759 407.12 161.703 407.255 161.703 407.397V413.798C161.703 413.94 161.759 414.075 161.859 414.175C161.959 414.275 162.094 414.331 162.236 414.332H168.625C168.767 414.331 168.902 414.275 169.002 414.175C169.102 414.075 169.158 413.94 169.158 413.798V407.397C169.158 407.255 169.102 407.12 169.002 407.02C168.902 406.92 168.767 406.863 168.625 406.863H162.236Z" fill="#3F3D56"/>
<path d="M282.577 414.332H161.171V415.398H282.577V414.332Z" fill="#3F3D56"/>
<path d="M598.341 470.879H208.029V471.946H598.341V470.879Z" fill="#3F3D56"/>
<path d="M208.029 478.347C212.146 478.347 215.484 475.003 215.484 470.879C215.484 466.754 212.146 463.41 208.029 463.41C203.912 463.41 200.575 466.754 200.575 470.879C200.575 475.003 203.912 478.347 208.029 478.347Z" fill="#3F3D56"/>
<path d="M598.341 477.814C601.576 477.814 604.198 475.186 604.198 471.946C604.198 468.705 601.576 466.077 598.341 466.077C595.106 466.077 592.483 468.705 592.483 471.946C592.483 475.186 595.106 477.814 598.341 477.814Z" fill="#3F3D56"/>
<path d="M627.095 595.709C630.33 595.709 632.952 593.082 632.952 589.841C632.952 586.6 630.33 583.973 627.095 583.973C623.86 583.973 621.238 586.6 621.238 589.841C621.238 593.082 623.86 595.709 627.095 595.709Z" fill="#3F3D56"/>
<path d="M238.381 595.709C241.616 595.709 244.238 593.082 244.238 589.841C244.238 586.6 241.616 583.973 238.381 583.973C235.146 583.973 232.524 586.6 232.524 589.841C232.524 593.082 235.146 595.709 238.381 595.709Z" fill="#3F3D56"/>
</g>
<path d="M235.673 884.24C234.593 884.24 233.586 884.067 232.653 883.72C231.733 883.36 230.933 882.853 230.252 882.2C229.573 881.547 229.039 880.78 228.653 879.9C228.279 879.02 228.093 878.053 228.093 877C228.093 875.947 228.279 874.98 228.653 874.1C229.039 873.22 229.573 872.453 230.252 871.8C230.946 871.147 231.753 870.647 232.673 870.3C233.593 869.94 234.599 869.76 235.693 869.76C236.906 869.76 237.999 869.973 238.973 870.4C239.959 870.813 240.786 871.427 241.453 872.24L239.373 874.16C238.893 873.613 238.359 873.207 237.773 872.94C237.186 872.66 236.546 872.52 235.853 872.52C235.199 872.52 234.599 872.627 234.053 872.84C233.506 873.053 233.033 873.36 232.633 873.76C232.233 874.16 231.919 874.633 231.693 875.18C231.479 875.727 231.373 876.333 231.373 877C231.373 877.667 231.479 878.273 231.693 878.82C231.919 879.367 232.233 879.84 232.633 880.24C233.033 880.64 233.506 880.947 234.053 881.16C234.599 881.373 235.199 881.48 235.853 881.48C236.546 881.48 237.186 881.347 237.773 881.08C238.359 880.8 238.893 880.38 239.373 879.82L241.453 881.74C240.786 882.553 239.959 883.173 238.973 883.6C237.999 884.027 236.899 884.24 235.673 884.24ZM248.169 884.16C247.023 884.16 246.003 883.92 245.109 883.44C244.229 882.96 243.529 882.307 243.009 881.48C242.503 880.64 242.249 879.687 242.249 878.62C242.249 877.54 242.503 876.587 243.009 875.76C243.529 874.92 244.229 874.267 245.109 873.8C246.003 873.32 247.023 873.08 248.169 873.08C249.303 873.08 250.316 873.32 251.209 873.8C252.103 874.267 252.803 874.913 253.309 875.74C253.816 876.567 254.069 877.527 254.069 878.62C254.069 879.687 253.816 880.64 253.309 881.48C252.803 882.307 252.103 882.96 251.209 883.44C250.316 883.92 249.303 884.16 248.169 884.16ZM248.169 881.6C248.689 881.6 249.156 881.48 249.569 881.24C249.983 881 250.309 880.66 250.549 880.22C250.789 879.767 250.909 879.233 250.909 878.62C250.909 877.993 250.789 877.46 250.549 877.02C250.309 876.58 249.983 876.24 249.569 876C249.156 875.76 248.689 875.64 248.169 875.64C247.649 875.64 247.183 875.76 246.769 876C246.356 876.24 246.023 876.58 245.769 877.02C245.529 877.46 245.409 877.993 245.409 878.62C245.409 879.233 245.529 879.767 245.769 880.22C246.023 880.66 246.356 881 246.769 881.24C247.183 881.48 247.649 881.6 248.169 881.6ZM262.695 873.08C263.548 873.08 264.308 873.253 264.975 873.6C265.655 873.933 266.188 874.453 266.575 875.16C266.962 875.853 267.155 876.747 267.155 877.84V884H264.035V878.32C264.035 877.453 263.842 876.813 263.455 876.4C263.082 875.987 262.548 875.78 261.855 875.78C261.362 875.78 260.915 875.887 260.515 876.1C260.128 876.3 259.822 876.613 259.595 877.04C259.382 877.467 259.275 878.013 259.275 878.68V884H256.155V873.24H259.135V876.22L258.575 875.32C258.962 874.6 259.515 874.047 260.235 873.66C260.955 873.273 261.775 873.08 262.695 873.08ZM276.523 873.08C277.376 873.08 278.136 873.253 278.803 873.6C279.483 873.933 280.016 874.453 280.403 875.16C280.79 875.853 280.983 876.747 280.983 877.84V884H277.863V878.32C277.863 877.453 277.67 876.813 277.283 876.4C276.91 875.987 276.376 875.78 275.683 875.78C275.19 875.78 274.743 875.887 274.343 876.1C273.956 876.3 273.65 876.613 273.423 877.04C273.21 877.467 273.103 878.013 273.103 878.68V884H269.983V873.24H272.963V876.22L272.403 875.32C272.79 874.6 273.343 874.047 274.063 873.66C274.783 873.273 275.603 873.08 276.523 873.08ZM289.229 884.16C288.003 884.16 286.923 883.92 285.989 883.44C285.069 882.96 284.356 882.307 283.849 881.48C283.343 880.64 283.089 879.687 283.089 878.62C283.089 877.54 283.336 876.587 283.829 875.76C284.336 874.92 285.023 874.267 285.889 873.8C286.756 873.32 287.736 873.08 288.829 873.08C289.883 873.08 290.829 873.307 291.669 873.76C292.523 874.2 293.196 874.84 293.689 875.68C294.183 876.507 294.429 877.5 294.429 878.66C294.429 878.78 294.423 878.92 294.409 879.08C294.396 879.227 294.383 879.367 294.369 879.5H285.629V877.68H292.729L291.529 878.22C291.529 877.66 291.416 877.173 291.189 876.76C290.963 876.347 290.649 876.027 290.249 875.8C289.849 875.56 289.383 875.44 288.849 875.44C288.316 875.44 287.843 875.56 287.429 875.8C287.029 876.027 286.716 876.353 286.489 876.78C286.263 877.193 286.149 877.687 286.149 878.26V878.74C286.149 879.327 286.276 879.847 286.529 880.3C286.796 880.74 287.163 881.08 287.629 881.32C288.109 881.547 288.669 881.66 289.309 881.66C289.883 881.66 290.383 881.573 290.809 881.4C291.249 881.227 291.649 880.967 292.009 880.62L293.669 882.42C293.176 882.98 292.556 883.413 291.809 883.72C291.063 884.013 290.203 884.16 289.229 884.16ZM301.706 884.16C300.546 884.16 299.513 883.927 298.606 883.46C297.7 882.98 296.986 882.32 296.466 881.48C295.96 880.64 295.706 879.687 295.706 878.62C295.706 877.54 295.96 876.587 296.466 875.76C296.986 874.92 297.7 874.267 298.606 873.8C299.513 873.32 300.546 873.08 301.706 873.08C302.84 873.08 303.826 873.32 304.666 873.8C305.506 874.267 306.126 874.94 306.526 875.82L304.106 877.12C303.826 876.613 303.473 876.24 303.046 876C302.633 875.76 302.18 875.64 301.686 875.64C301.153 875.64 300.673 875.76 300.246 876C299.82 876.24 299.48 876.58 299.226 877.02C298.986 877.46 298.866 877.993 298.866 878.62C298.866 879.247 298.986 879.78 299.226 880.22C299.48 880.66 299.82 881 300.246 881.24C300.673 881.48 301.153 881.6 301.686 881.6C302.18 881.6 302.633 881.487 303.046 881.26C303.473 881.02 303.826 880.64 304.106 880.12L306.526 881.44C306.126 882.307 305.506 882.98 304.666 883.46C303.826 883.927 302.84 884.16 301.706 884.16ZM312.879 884.16C311.612 884.16 310.626 883.84 309.919 883.2C309.212 882.547 308.859 881.58 308.859 880.3V870.86H311.979V880.26C311.979 880.713 312.099 881.067 312.339 881.32C312.579 881.56 312.906 881.68 313.319 881.68C313.812 881.68 314.232 881.547 314.579 881.28L315.419 883.48C315.099 883.707 314.712 883.88 314.259 884C313.819 884.107 313.359 884.16 312.879 884.16ZM307.199 875.88V873.48H314.659V875.88H307.199ZM325.295 884L321.415 873.24H324.355L327.575 882.5H326.175L329.535 873.24H332.175L335.435 882.5H334.035L337.355 873.24H340.115L336.215 884H333.195L330.335 876.06H331.255L328.295 884H325.295ZM341.565 884V873.24H344.685V884H341.565ZM343.125 871.74C342.552 871.74 342.085 871.573 341.725 871.24C341.365 870.907 341.185 870.493 341.185 870C341.185 869.507 341.365 869.093 341.725 868.76C342.085 868.427 342.552 868.26 343.125 868.26C343.698 868.26 344.165 868.42 344.525 868.74C344.885 869.047 345.065 869.447 345.065 869.94C345.065 870.46 344.885 870.893 344.525 871.24C344.178 871.573 343.712 871.74 343.125 871.74ZM351.981 884.16C350.714 884.16 349.727 883.84 349.021 883.2C348.314 882.547 347.961 881.58 347.961 880.3V870.86H351.081V880.26C351.081 880.713 351.201 881.067 351.441 881.32C351.681 881.56 352.007 881.68 352.421 881.68C352.914 881.68 353.334 881.547 353.681 881.28L354.521 883.48C354.201 883.707 353.814 883.88 353.361 884C352.921 884.107 352.461 884.16 351.981 884.16ZM346.301 875.88V873.48H353.761V875.88H346.301ZM362.812 873.08C363.665 873.08 364.425 873.253 365.092 873.6C365.772 873.933 366.305 874.453 366.692 875.16C367.079 875.853 367.272 876.747 367.272 877.84V884H364.152V878.32C364.152 877.453 363.959 876.813 363.572 876.4C363.199 875.987 362.665 875.78 361.972 875.78C361.479 875.78 361.032 875.887 360.632 876.1C360.245 876.3 359.939 876.613 359.712 877.04C359.499 877.467 359.392 878.013 359.392 878.68V884H356.272V869.16H359.392V876.22L358.692 875.32C359.079 874.6 359.632 874.047 360.352 873.66C361.072 873.273 361.892 873.08 362.812 873.08ZM382.364 884V881.9L382.164 881.44V877.68C382.164 877.013 381.958 876.493 381.544 876.12C381.144 875.747 380.524 875.56 379.684 875.56C379.111 875.56 378.544 875.653 377.984 875.84C377.438 876.013 376.971 876.253 376.584 876.56L375.464 874.38C376.051 873.967 376.758 873.647 377.584 873.42C378.411 873.193 379.251 873.08 380.104 873.08C381.744 873.08 383.018 873.467 383.924 874.24C384.831 875.013 385.284 876.22 385.284 877.86V884H382.364ZM379.084 884.16C378.244 884.16 377.524 884.02 376.924 883.74C376.324 883.447 375.864 883.053 375.544 882.56C375.224 882.067 375.064 881.513 375.064 880.9C375.064 880.26 375.218 879.7 375.524 879.22C375.844 878.74 376.344 878.367 377.024 878.1C377.704 877.82 378.591 877.68 379.684 877.68H382.544V879.5H380.024C379.291 879.5 378.784 879.62 378.504 879.86C378.238 880.1 378.104 880.4 378.104 880.76C378.104 881.16 378.258 881.48 378.564 881.72C378.884 881.947 379.318 882.06 379.864 882.06C380.384 882.06 380.851 881.94 381.264 881.7C381.678 881.447 381.978 881.08 382.164 880.6L382.644 882.04C382.418 882.733 382.004 883.26 381.404 883.62C380.804 883.98 380.031 884.16 379.084 884.16ZM394.648 873.08C395.501 873.08 396.261 873.253 396.928 873.6C397.608 873.933 398.141 874.453 398.528 875.16C398.915 875.853 399.108 876.747 399.108 877.84V884H395.988V878.32C395.988 877.453 395.795 876.813 395.408 876.4C395.035 875.987 394.501 875.78 393.808 875.78C393.315 875.78 392.868 875.887 392.468 876.1C392.081 876.3 391.775 876.613 391.548 877.04C391.335 877.467 391.228 878.013 391.228 878.68V884H388.108V873.24H391.088V876.22L390.528 875.32C390.915 874.6 391.468 874.047 392.188 873.66C392.908 873.273 393.728 873.08 394.648 873.08ZM403.101 888.04C402.541 888.04 401.987 887.953 401.441 887.78C400.894 887.607 400.447 887.367 400.101 887.06L401.241 884.84C401.481 885.053 401.754 885.22 402.061 885.34C402.381 885.46 402.694 885.52 403.001 885.52C403.441 885.52 403.787 885.413 404.041 885.2C404.307 885 404.547 884.66 404.761 884.18L405.321 882.86L405.561 882.52L409.421 873.24H412.421L407.561 884.66C407.214 885.527 406.814 886.207 406.361 886.7C405.921 887.193 405.427 887.54 404.881 887.74C404.347 887.94 403.754 888.04 403.101 888.04ZM404.941 884.42L400.141 873.24H403.361L407.081 882.24L404.941 884.42ZM423.978 884.16C422.965 884.16 422.051 883.933 421.238 883.48C420.425 883.013 419.778 882.367 419.298 881.54C418.831 880.713 418.598 879.74 418.598 878.62C418.598 877.487 418.831 876.507 419.298 875.68C419.778 874.853 420.425 874.213 421.238 873.76C422.051 873.307 422.965 873.08 423.978 873.08C424.885 873.08 425.678 873.28 426.358 873.68C427.038 874.08 427.565 874.687 427.938 875.5C428.311 876.313 428.498 877.353 428.498 878.62C428.498 879.873 428.318 880.913 427.958 881.74C427.598 882.553 427.078 883.16 426.398 883.56C425.731 883.96 424.925 884.16 423.978 884.16ZM424.518 881.6C425.025 881.6 425.485 881.48 425.898 881.24C426.311 881 426.638 880.66 426.878 880.22C427.131 879.767 427.258 879.233 427.258 878.62C427.258 877.993 427.131 877.46 426.878 877.02C426.638 876.58 426.311 876.24 425.898 876C425.485 875.76 425.025 875.64 424.518 875.64C423.998 875.64 423.531 875.76 423.118 876C422.705 876.24 422.371 876.58 422.118 877.02C421.878 877.46 421.758 877.993 421.758 878.62C421.758 879.233 421.878 879.767 422.118 880.22C422.371 880.66 422.705 881 423.118 881.24C423.531 881.48 423.998 881.6 424.518 881.6ZM427.338 884V881.8L427.398 878.6L427.198 875.42V869.16H430.318V884H427.338ZM438.546 884.16C437.319 884.16 436.239 883.92 435.306 883.44C434.386 882.96 433.672 882.307 433.166 881.48C432.659 880.64 432.406 879.687 432.406 878.62C432.406 877.54 432.652 876.587 433.146 875.76C433.652 874.92 434.339 874.267 435.206 873.8C436.072 873.32 437.052 873.08 438.146 873.08C439.199 873.08 440.146 873.307 440.986 873.76C441.839 874.2 442.512 874.84 443.006 875.68C443.499 876.507 443.746 877.5 443.746 878.66C443.746 878.78 443.739 878.92 443.726 879.08C443.712 879.227 443.699 879.367 443.686 879.5H434.946V877.68H442.046L440.846 878.22C440.846 877.66 440.732 877.173 440.506 876.76C440.279 876.347 439.966 876.027 439.566 875.8C439.166 875.56 438.699 875.44 438.166 875.44C437.632 875.44 437.159 875.56 436.746 875.8C436.346 876.027 436.032 876.353 435.806 876.78C435.579 877.193 435.466 877.687 435.466 878.26V878.74C435.466 879.327 435.592 879.847 435.846 880.3C436.112 880.74 436.479 881.08 436.946 881.32C437.426 881.547 437.986 881.66 438.626 881.66C439.199 881.66 439.699 881.573 440.126 881.4C440.566 881.227 440.966 880.967 441.326 880.62L442.986 882.42C442.492 882.98 441.872 883.413 441.126 883.72C440.379 884.013 439.519 884.16 438.546 884.16ZM448.548 884L444.027 873.24H447.248L451.008 882.5H449.408L453.308 873.24H456.308L451.768 884H448.548ZM457.581 884V873.24H460.701V884H457.581ZM459.141 871.74C458.567 871.74 458.101 871.573 457.741 871.24C457.381 870.907 457.201 870.493 457.201 870C457.201 869.507 457.381 869.093 457.741 868.76C458.101 868.427 458.567 868.26 459.141 868.26C459.714 868.26 460.181 868.42 460.541 868.74C460.901 869.047 461.081 869.447 461.081 869.94C461.081 870.46 460.901 870.893 460.541 871.24C460.194 871.573 459.727 871.74 459.141 871.74ZM468.796 884.16C467.636 884.16 466.603 883.927 465.696 883.46C464.79 882.98 464.076 882.32 463.556 881.48C463.05 880.64 462.796 879.687 462.796 878.62C462.796 877.54 463.05 876.587 463.556 875.76C464.076 874.92 464.79 874.267 465.696 873.8C466.603 873.32 467.636 873.08 468.796 873.08C469.93 873.08 470.916 873.32 471.756 873.8C472.596 874.267 473.216 874.94 473.616 875.82L471.196 877.12C470.916 876.613 470.563 876.24 470.136 876C469.723 875.76 469.27 875.64 468.776 875.64C468.243 875.64 467.763 875.76 467.336 876C466.91 876.24 466.57 876.58 466.316 877.02C466.076 877.46 465.956 877.993 465.956 878.62C465.956 879.247 466.076 879.78 466.316 880.22C466.57 880.66 466.91 881 467.336 881.24C467.763 881.48 468.243 881.6 468.776 881.6C469.27 881.6 469.723 881.487 470.136 881.26C470.563 881.02 470.916 880.64 471.196 880.12L473.616 881.44C473.216 882.307 472.596 882.98 471.756 883.46C470.916 883.927 469.93 884.16 468.796 884.16ZM480.616 884.16C479.389 884.16 478.309 883.92 477.376 883.44C476.456 882.96 475.743 882.307 475.236 881.48C474.729 880.64 474.476 879.687 474.476 878.62C474.476 877.54 474.723 876.587 475.216 875.76C475.723 874.92 476.409 874.267 477.276 873.8C478.143 873.32 479.123 873.08 480.216 873.08C481.269 873.08 482.216 873.307 483.056 873.76C483.909 874.2 484.583 874.84 485.076 875.68C485.569 876.507 485.816 877.5 485.816 878.66C485.816 878.78 485.809 878.92 485.796 879.08C485.783 879.227 485.769 879.367 485.756 879.5H477.016V877.68H484.116L482.916 878.22C482.916 877.66 482.803 877.173 482.576 876.76C482.349 876.347 482.036 876.027 481.636 875.8C481.236 875.56 480.769 875.44 480.236 875.44C479.703 875.44 479.229 875.56 478.816 875.8C478.416 876.027 478.103 876.353 477.876 876.78C477.649 877.193 477.536 877.687 477.536 878.26V878.74C477.536 879.327 477.663 879.847 477.916 880.3C478.183 880.74 478.549 881.08 479.016 881.32C479.496 881.547 480.056 881.66 480.696 881.66C481.269 881.66 481.769 881.573 482.196 881.4C482.636 881.227 483.036 880.967 483.396 880.62L485.056 882.42C484.563 882.98 483.943 883.413 483.196 883.72C482.449 884.013 481.589 884.16 480.616 884.16ZM489.073 884.16C488.54 884.16 488.08 883.98 487.693 883.62C487.32 883.247 487.133 882.773 487.133 882.2C487.133 881.627 487.32 881.167 487.693 880.82C488.08 880.46 488.54 880.28 489.073 880.28C489.62 880.28 490.08 880.46 490.453 880.82C490.826 881.167 491.013 881.627 491.013 882.2C491.013 882.773 490.826 883.247 490.453 883.62C490.08 883.98 489.62 884.16 489.073 884.16Z" fill="#E0EAFF"/>
<path d="M172.738 901.632H178.498V902.992H172.738V901.632ZM172.882 906.608H179.41V908H171.282V896.8H179.186V898.192H172.882V906.608ZM183.86 908L180.148 899.52H181.748L185.044 907.2H184.276L187.636 899.52H189.14L185.428 908H183.86ZM194.115 908.096C193.208 908.096 192.408 907.909 191.715 907.536C191.032 907.163 190.499 906.651 190.115 906C189.741 905.349 189.555 904.603 189.555 903.76C189.555 902.917 189.736 902.171 190.099 901.52C190.472 900.869 190.979 900.363 191.619 900C192.269 899.627 193 899.44 193.811 899.44C194.632 899.44 195.357 899.621 195.987 899.984C196.616 900.347 197.107 900.859 197.459 901.52C197.821 902.171 198.003 902.933 198.003 903.808C198.003 903.872 197.997 903.947 197.987 904.032C197.987 904.117 197.981 904.197 197.971 904.272H190.755V903.168H197.171L196.547 903.552C196.557 903.008 196.445 902.523 196.211 902.096C195.976 901.669 195.651 901.339 195.235 901.104C194.829 900.859 194.355 900.736 193.811 900.736C193.277 900.736 192.803 900.859 192.387 901.104C191.971 901.339 191.645 901.675 191.411 902.112C191.176 902.539 191.059 903.029 191.059 903.584V903.84C191.059 904.405 191.187 904.912 191.443 905.36C191.709 905.797 192.077 906.139 192.547 906.384C193.016 906.629 193.555 906.752 194.163 906.752C194.664 906.752 195.117 906.667 195.523 906.496C195.939 906.325 196.301 906.069 196.611 905.728L197.459 906.72C197.075 907.168 196.595 907.509 196.019 907.744C195.453 907.979 194.819 908.096 194.115 908.096ZM200.136 908V899.52H201.608V901.824L201.464 901.248C201.698 900.661 202.093 900.213 202.648 899.904C203.202 899.595 203.885 899.44 204.696 899.44V900.928C204.632 900.917 204.568 900.912 204.504 900.912C204.45 900.912 204.397 900.912 204.344 900.912C203.522 900.912 202.872 901.157 202.392 901.648C201.912 902.139 201.672 902.848 201.672 903.776V908H200.136ZM207.301 911.2C206.895 911.2 206.501 911.131 206.117 910.992C205.733 910.864 205.402 910.672 205.125 910.416L205.781 909.264C205.994 909.467 206.229 909.621 206.485 909.728C206.741 909.835 207.013 909.888 207.301 909.888C207.674 909.888 207.983 909.792 208.229 909.6C208.474 909.408 208.703 909.067 208.917 908.576L209.445 907.408L209.605 907.216L212.933 899.52H214.437L210.325 908.848C210.079 909.445 209.802 909.915 209.493 910.256C209.194 910.597 208.863 910.837 208.501 910.976C208.138 911.125 207.738 911.2 207.301 911.2ZM209.317 908.272L205.445 899.52H207.045L210.341 907.072L209.317 908.272ZM219.016 908.096C218.163 908.096 217.502 907.867 217.032 907.408C216.563 906.949 216.328 906.293 216.328 905.44V897.664H217.864V905.376C217.864 905.835 217.976 906.187 218.2 906.432C218.435 906.677 218.766 906.8 219.192 906.8C219.672 906.8 220.072 906.667 220.392 906.4L220.872 907.504C220.638 907.707 220.355 907.856 220.024 907.952C219.704 908.048 219.368 908.096 219.016 908.096ZM214.888 900.784V899.52H220.296V900.784H214.888ZM227.257 899.44C227.951 899.44 228.559 899.573 229.081 899.84C229.615 900.107 230.031 900.512 230.329 901.056C230.628 901.6 230.777 902.288 230.777 903.12V908H229.241V903.296C229.241 902.475 229.039 901.856 228.633 901.44C228.239 901.024 227.679 900.816 226.953 900.816C226.409 900.816 225.935 900.923 225.529 901.136C225.124 901.349 224.809 901.664 224.585 902.08C224.372 902.496 224.265 903.013 224.265 903.632V908H222.729V896.128H224.265V901.808L223.961 901.2C224.239 900.645 224.665 900.213 225.241 899.904C225.817 899.595 226.489 899.44 227.257 899.44ZM233.62 908V899.52H235.156V908H233.62ZM234.388 897.888C234.089 897.888 233.839 897.792 233.636 897.6C233.444 897.408 233.348 897.173 233.348 896.896C233.348 896.608 233.444 896.368 233.636 896.176C233.839 895.984 234.089 895.888 234.388 895.888C234.687 895.888 234.932 895.984 235.124 896.176C235.327 896.357 235.428 896.587 235.428 896.864C235.428 897.152 235.332 897.397 235.14 897.6C234.948 897.792 234.697 897.888 234.388 897.888ZM242.617 899.44C243.31 899.44 243.918 899.573 244.441 899.84C244.974 900.107 245.39 900.512 245.689 901.056C245.987 901.6 246.137 902.288 246.137 903.12V908H244.601V903.296C244.601 902.475 244.398 901.856 243.993 901.44C243.598 901.024 243.038 900.816 242.313 900.816C241.769 900.816 241.294 900.923 240.889 901.136C240.483 901.349 240.169 901.664 239.945 902.08C239.731 902.496 239.625 903.013 239.625 903.632V908H238.089V899.52H239.561V901.808L239.321 901.2C239.598 900.645 240.025 900.213 240.601 899.904C241.177 899.595 241.849 899.44 242.617 899.44ZM252.691 911.2C251.913 911.2 251.155 911.088 250.419 910.864C249.694 910.651 249.102 910.341 248.643 909.936L249.379 908.752C249.774 909.093 250.259 909.36 250.835 909.552C251.411 909.755 252.014 909.856 252.643 909.856C253.646 909.856 254.382 909.621 254.851 909.152C255.321 908.683 255.555 907.968 255.555 907.008V905.216L255.715 903.536L255.635 901.84V899.52H257.091V906.848C257.091 908.341 256.718 909.44 255.971 910.144C255.225 910.848 254.131 911.2 252.691 911.2ZM252.499 907.648C251.678 907.648 250.942 907.477 250.291 907.136C249.651 906.784 249.139 906.299 248.755 905.68C248.382 905.061 248.195 904.347 248.195 903.536C248.195 902.715 248.382 902 248.755 901.392C249.139 900.773 249.651 900.293 250.291 899.952C250.942 899.611 251.678 899.44 252.499 899.44C253.225 899.44 253.886 899.589 254.483 899.888C255.081 900.176 255.555 900.624 255.907 901.232C256.27 901.84 256.451 902.608 256.451 903.536C256.451 904.453 256.27 905.216 255.907 905.824C255.555 906.432 255.081 906.891 254.483 907.2C253.886 907.499 253.225 907.648 252.499 907.648ZM252.675 906.304C253.241 906.304 253.742 906.187 254.179 905.952C254.617 905.717 254.958 905.392 255.203 904.976C255.459 904.56 255.587 904.08 255.587 903.536C255.587 902.992 255.459 902.512 255.203 902.096C254.958 901.68 254.617 901.36 254.179 901.136C253.742 900.901 253.241 900.784 252.675 900.784C252.11 900.784 251.603 900.901 251.155 901.136C250.718 901.36 250.371 901.68 250.115 902.096C249.87 902.512 249.747 902.992 249.747 903.536C249.747 904.08 249.87 904.56 250.115 904.976C250.371 905.392 250.718 905.717 251.155 905.952C251.603 906.187 252.11 906.304 252.675 906.304ZM264.691 911.2C264.286 911.2 263.891 911.131 263.507 910.992C263.123 910.864 262.793 910.672 262.515 910.416L263.171 909.264C263.385 909.467 263.619 909.621 263.875 909.728C264.131 909.835 264.403 909.888 264.691 909.888C265.065 909.888 265.374 909.792 265.619 909.6C265.865 909.408 266.094 909.067 266.307 908.576L266.835 907.408L266.995 907.216L270.323 899.52H271.827L267.715 908.848C267.47 909.445 267.193 909.915 266.883 910.256C266.585 910.597 266.254 910.837 265.891 910.976C265.529 911.125 265.129 911.2 264.691 911.2ZM266.707 908.272L262.835 899.52H264.435L267.731 907.072L266.707 908.272ZM276.658 908.096C275.805 908.096 275.048 907.909 274.386 907.536C273.725 907.163 273.202 906.651 272.818 906C272.434 905.339 272.242 904.592 272.242 903.76C272.242 902.917 272.434 902.171 272.818 901.52C273.202 900.869 273.725 900.363 274.386 900C275.048 899.627 275.805 899.44 276.658 899.44C277.501 899.44 278.253 899.627 278.914 900C279.586 900.363 280.109 900.869 280.482 901.52C280.866 902.16 281.058 902.907 281.058 903.76C281.058 904.603 280.866 905.349 280.482 906C280.109 906.651 279.586 907.163 278.914 907.536C278.253 907.909 277.501 908.096 276.658 908.096ZM276.658 906.752C277.202 906.752 277.688 906.629 278.114 906.384C278.552 906.139 278.893 905.792 279.138 905.344C279.384 904.885 279.506 904.357 279.506 903.76C279.506 903.152 279.384 902.629 279.138 902.192C278.893 901.744 278.552 901.397 278.114 901.152C277.688 900.907 277.202 900.784 276.658 900.784C276.114 900.784 275.629 900.907 275.202 901.152C274.776 901.397 274.434 901.744 274.178 902.192C273.922 902.629 273.794 903.152 273.794 903.76C273.794 904.357 273.922 904.885 274.178 905.344C274.434 905.792 274.776 906.139 275.202 906.384C275.629 906.629 276.114 906.752 276.658 906.752ZM286.751 908.096C286.025 908.096 285.385 907.963 284.831 907.696C284.287 907.429 283.86 907.024 283.551 906.48C283.252 905.925 283.103 905.232 283.103 904.4V899.52H284.639V904.224C284.639 905.056 284.836 905.68 285.231 906.096C285.636 906.512 286.201 906.72 286.927 906.72C287.46 906.72 287.924 906.613 288.319 906.4C288.713 906.176 289.017 905.856 289.231 905.44C289.444 905.013 289.551 904.501 289.551 903.904V899.52H291.087V908H289.631V905.712L289.871 906.32C289.593 906.885 289.177 907.323 288.623 907.632C288.068 907.941 287.444 908.096 286.751 908.096ZM302.836 899.44C303.529 899.44 304.137 899.573 304.66 899.84C305.193 900.107 305.609 900.512 305.908 901.056C306.206 901.6 306.356 902.288 306.356 903.12V908H304.82V903.296C304.82 902.475 304.617 901.856 304.212 901.44C303.817 901.024 303.257 900.816 302.532 900.816C301.988 900.816 301.513 900.923 301.108 901.136C300.702 901.349 300.388 901.664 300.164 902.08C299.95 902.496 299.844 903.013 299.844 903.632V908H298.308V899.52H299.78V901.808L299.54 901.2C299.817 900.645 300.244 900.213 300.82 899.904C301.396 899.595 302.068 899.44 302.836 899.44ZM312.974 908.096C312.068 908.096 311.268 907.909 310.574 907.536C309.892 907.163 309.358 906.651 308.974 906C308.601 905.349 308.414 904.603 308.414 903.76C308.414 902.917 308.596 902.171 308.958 901.52C309.332 900.869 309.838 900.363 310.478 900C311.129 899.627 311.86 899.44 312.67 899.44C313.492 899.44 314.217 899.621 314.846 899.984C315.476 900.347 315.966 900.859 316.318 901.52C316.681 902.171 316.862 902.933 316.862 903.808C316.862 903.872 316.857 903.947 316.846 904.032C316.846 904.117 316.841 904.197 316.83 904.272H309.614V903.168H316.03L315.406 903.552C315.417 903.008 315.305 902.523 315.07 902.096C314.836 901.669 314.51 901.339 314.094 901.104C313.689 900.859 313.214 900.736 312.67 900.736C312.137 900.736 311.662 900.859 311.246 901.104C310.83 901.339 310.505 901.675 310.27 902.112C310.036 902.539 309.918 903.029 309.918 903.584V903.84C309.918 904.405 310.046 904.912 310.302 905.36C310.569 905.797 310.937 906.139 311.406 906.384C311.876 906.629 312.414 906.752 313.022 906.752C313.524 906.752 313.977 906.667 314.382 906.496C314.798 906.325 315.161 906.069 315.47 905.728L316.318 906.72C315.934 907.168 315.454 907.509 314.878 907.744C314.313 907.979 313.678 908.096 312.974 908.096ZM322.771 908.096C321.864 908.096 321.064 907.909 320.371 907.536C319.688 907.163 319.155 906.651 318.771 906C318.398 905.349 318.211 904.603 318.211 903.76C318.211 902.917 318.392 902.171 318.755 901.52C319.128 900.869 319.635 900.363 320.275 900C320.926 899.627 321.656 899.44 322.467 899.44C323.288 899.44 324.014 899.621 324.643 899.984C325.272 900.347 325.763 900.859 326.115 901.52C326.478 902.171 326.659 902.933 326.659 903.808C326.659 903.872 326.654 903.947 326.643 904.032C326.643 904.117 326.638 904.197 326.627 904.272H319.411V903.168H325.827L325.203 903.552C325.214 903.008 325.102 902.523 324.867 902.096C324.632 901.669 324.307 901.339 323.891 901.104C323.486 900.859 323.011 900.736 322.467 900.736C321.934 900.736 321.459 900.859 321.043 901.104C320.627 901.339 320.302 901.675 320.067 902.112C319.832 902.539 319.715 903.029 319.715 903.584V903.84C319.715 904.405 319.843 904.912 320.099 905.36C320.366 905.797 320.734 906.139 321.203 906.384C321.672 906.629 322.211 906.752 322.819 906.752C323.32 906.752 323.774 906.667 324.179 906.496C324.595 906.325 324.958 906.069 325.267 905.728L326.115 906.72C325.731 907.168 325.251 907.509 324.675 907.744C324.11 907.979 323.475 908.096 322.771 908.096ZM332.296 908.096C331.475 908.096 330.739 907.915 330.088 907.552C329.448 907.189 328.941 906.683 328.568 906.032C328.195 905.381 328.008 904.624 328.008 903.76C328.008 902.896 328.195 902.144 328.568 901.504C328.941 900.853 329.448 900.347 330.088 899.984C330.739 899.621 331.475 899.44 332.296 899.44C333.011 899.44 333.656 899.6 334.232 899.92C334.808 900.24 335.267 900.72 335.608 901.36C335.96 902 336.136 902.8 336.136 903.76C336.136 904.72 335.965 905.52 335.624 906.16C335.293 906.8 334.84 907.285 334.264 907.616C333.688 907.936 333.032 908.096 332.296 908.096ZM332.424 906.752C332.957 906.752 333.437 906.629 333.864 906.384C334.301 906.139 334.643 905.792 334.888 905.344C335.144 904.885 335.272 904.357 335.272 903.76C335.272 903.152 335.144 902.629 334.888 902.192C334.643 901.744 334.301 901.397 333.864 901.152C333.437 900.907 332.957 900.784 332.424 900.784C331.88 900.784 331.395 900.907 330.968 901.152C330.541 901.397 330.2 901.744 329.944 902.192C329.688 902.629 329.56 903.152 329.56 903.76C329.56 904.357 329.688 904.885 329.944 905.344C330.2 905.792 330.541 906.139 330.968 906.384C331.395 906.629 331.88 906.752 332.424 906.752ZM335.32 908V905.712L335.416 903.744L335.256 901.776V896.128H336.792V908H335.32ZM343.995 908V899.52H345.531V908H343.995ZM344.763 897.888C344.464 897.888 344.214 897.792 344.011 897.6C343.819 897.408 343.723 897.173 343.723 896.896C343.723 896.608 343.819 896.368 344.011 896.176C344.214 895.984 344.464 895.888 344.763 895.888C345.062 895.888 345.307 895.984 345.499 896.176C345.702 896.357 345.803 896.587 345.803 896.864C345.803 897.152 345.707 897.397 345.515 897.6C345.323 897.792 345.072 897.888 344.763 897.888ZM350.896 908.096C350.192 908.096 349.52 908 348.88 907.808C348.25 907.616 347.754 907.381 347.392 907.104L348.032 905.888C348.394 906.133 348.842 906.341 349.376 906.512C349.909 906.683 350.453 906.768 351.008 906.768C351.722 906.768 352.234 906.667 352.544 906.464C352.864 906.261 353.024 905.979 353.024 905.616C353.024 905.349 352.928 905.141 352.736 904.992C352.544 904.843 352.288 904.731 351.968 904.656C351.658 904.581 351.312 904.517 350.928 904.464C350.544 904.4 350.16 904.325 349.776 904.24C349.392 904.144 349.04 904.016 348.72 903.856C348.4 903.685 348.144 903.456 347.952 903.168C347.76 902.869 347.664 902.475 347.664 901.984C347.664 901.472 347.808 901.024 348.096 900.64C348.384 900.256 348.789 899.963 349.312 899.76C349.845 899.547 350.474 899.44 351.2 899.44C351.754 899.44 352.314 899.509 352.88 899.648C353.456 899.776 353.925 899.963 354.288 900.208L353.632 901.424C353.248 901.168 352.848 900.992 352.432 900.896C352.016 900.8 351.6 900.752 351.184 900.752C350.512 900.752 350.01 900.864 349.68 901.088C349.349 901.301 349.184 901.579 349.184 901.92C349.184 902.208 349.28 902.432 349.472 902.592C349.674 902.741 349.93 902.859 350.24 902.944C350.56 903.029 350.912 903.104 351.296 903.168C351.68 903.221 352.064 903.296 352.448 903.392C352.832 903.477 353.178 903.6 353.488 903.76C353.808 903.92 354.064 904.144 354.256 904.432C354.458 904.72 354.56 905.104 354.56 905.584C354.56 906.096 354.41 906.539 354.112 906.912C353.813 907.285 353.392 907.579 352.848 907.792C352.304 907.995 351.653 908.096 350.896 908.096ZM366.04 908V906.208L365.96 905.872V902.816C365.96 902.165 365.768 901.664 365.384 901.312C365.011 900.949 364.446 900.768 363.688 900.768C363.187 900.768 362.696 900.853 362.216 901.024C361.736 901.184 361.331 901.403 361 901.68L360.36 900.528C360.798 900.176 361.32 899.909 361.928 899.728C362.547 899.536 363.192 899.44 363.864 899.44C365.027 899.44 365.923 899.723 366.552 900.288C367.182 900.853 367.496 901.717 367.496 902.88V908H366.04ZM363.256 908.096C362.627 908.096 362.072 907.989 361.592 907.776C361.123 907.563 360.76 907.269 360.504 906.896C360.248 906.512 360.12 906.08 360.12 905.6C360.12 905.141 360.227 904.725 360.44 904.352C360.664 903.979 361.022 903.68 361.512 903.456C362.014 903.232 362.686 903.12 363.528 903.12H366.216V904.224H363.592C362.824 904.224 362.307 904.352 362.04 904.608C361.774 904.864 361.64 905.173 361.64 905.536C361.64 905.952 361.806 906.288 362.136 906.544C362.467 906.789 362.926 906.912 363.512 906.912C364.088 906.912 364.59 906.784 365.016 906.528C365.454 906.272 365.768 905.899 365.96 905.408L366.264 906.464C366.062 906.965 365.704 907.365 365.192 907.664C364.68 907.952 364.035 908.096 363.256 908.096ZM374.867 899.44C375.56 899.44 376.168 899.573 376.691 899.84C377.224 900.107 377.64 900.512 377.939 901.056C378.237 901.6 378.387 902.288 378.387 903.12V908H376.851V903.296C376.851 902.475 376.648 901.856 376.243 901.44C375.848 901.024 375.288 900.816 374.563 900.816C374.019 900.816 373.544 900.923 373.139 901.136C372.733 901.349 372.419 901.664 372.195 902.08C371.981 902.496 371.875 903.013 371.875 903.632V908H370.339V899.52H371.811V901.808L371.571 901.2C371.848 900.645 372.275 900.213 372.851 899.904C373.427 899.595 374.099 899.44 374.867 899.44ZM385.526 908V899.52H387.062V908H385.526ZM386.294 897.888C385.996 897.888 385.745 897.792 385.542 897.6C385.35 897.408 385.254 897.173 385.254 896.896C385.254 896.608 385.35 896.368 385.542 896.176C385.745 895.984 385.996 895.888 386.294 895.888C386.593 895.888 386.838 895.984 387.03 896.176C387.233 896.357 387.334 896.587 387.334 896.864C387.334 897.152 387.238 897.397 387.046 897.6C386.854 897.792 386.604 897.888 386.294 897.888ZM394.523 899.44C395.216 899.44 395.824 899.573 396.347 899.84C396.88 900.107 397.296 900.512 397.595 901.056C397.894 901.6 398.043 902.288 398.043 903.12V908H396.507V903.296C396.507 902.475 396.304 901.856 395.899 901.44C395.504 901.024 394.944 900.816 394.219 900.816C393.675 900.816 393.2 900.923 392.795 901.136C392.39 901.349 392.075 901.664 391.851 902.08C391.638 902.496 391.531 903.013 391.531 903.632V908H389.995V899.52H391.467V901.808L391.227 901.2C391.504 900.645 391.931 900.213 392.507 899.904C393.083 899.595 393.755 899.44 394.523 899.44ZM403.798 908.096C402.944 908.096 402.283 907.867 401.814 907.408C401.344 906.949 401.11 906.293 401.11 905.44V897.664H402.646V905.376C402.646 905.835 402.758 906.187 402.982 906.432C403.216 906.677 403.547 906.8 403.974 906.8C404.454 906.8 404.854 906.667 405.174 906.4L405.654 907.504C405.419 907.707 405.136 907.856 404.806 907.952C404.486 908.048 404.15 908.096 403.798 908.096ZM399.67 900.784V899.52H405.078V900.784H399.67ZM411.005 908.096C410.099 908.096 409.299 907.909 408.605 907.536C407.923 907.163 407.389 906.651 407.005 906C406.632 905.349 406.445 904.603 406.445 903.76C406.445 902.917 406.627 902.171 406.989 901.52C407.363 900.869 407.869 900.363 408.509 900C409.16 899.627 409.891 899.44 410.701 899.44C411.523 899.44 412.248 899.621 412.877 899.984C413.507 900.347 413.997 900.859 414.349 901.52C414.712 902.171 414.893 902.933 414.893 903.808C414.893 903.872 414.888 903.947 414.877 904.032C414.877 904.117 414.872 904.197 414.861 904.272H407.645V903.168H414.061L413.437 903.552C413.448 903.008 413.336 902.523 413.101 902.096C412.867 901.669 412.541 901.339 412.125 901.104C411.72 900.859 411.245 900.736 410.701 900.736C410.168 900.736 409.693 900.859 409.277 901.104C408.861 901.339 408.536 901.675 408.301 902.112C408.067 902.539 407.949 903.029 407.949 903.584V903.84C407.949 904.405 408.077 904.912 408.333 905.36C408.6 905.797 408.968 906.139 409.437 906.384C409.907 906.629 410.445 906.752 411.053 906.752C411.555 906.752 412.008 906.667 412.413 906.496C412.829 906.325 413.192 906.069 413.501 905.728L414.349 906.72C413.965 907.168 413.485 907.509 412.909 907.744C412.344 907.979 411.709 908.096 411.005 908.096ZM417.026 908V899.52H418.498V901.824L418.354 901.248C418.589 900.661 418.984 900.213 419.538 899.904C420.093 899.595 420.776 899.44 421.586 899.44V900.928C421.522 900.917 421.458 900.912 421.394 900.912C421.341 900.912 421.288 900.912 421.234 900.912C420.413 900.912 419.762 901.157 419.282 901.648C418.802 902.139 418.562 902.848 418.562 903.776V908H417.026ZM428.007 899.44C428.701 899.44 429.309 899.573 429.831 899.84C430.365 900.107 430.781 900.512 431.079 901.056C431.378 901.6 431.527 902.288 431.527 903.12V908H429.991V903.296C429.991 902.475 429.789 901.856 429.383 901.44C428.989 901.024 428.429 900.816 427.703 900.816C427.159 900.816 426.685 900.923 426.279 901.136C425.874 901.349 425.559 901.664 425.335 902.08C425.122 902.496 425.015 903.013 425.015 903.632V908H423.479V899.52H424.951V901.808L424.711 901.2C424.989 900.645 425.415 900.213 425.991 899.904C426.567 899.595 427.239 899.44 428.007 899.44ZM438.146 908.096C437.239 908.096 436.439 907.909 435.746 907.536C435.063 907.163 434.53 906.651 434.146 906C433.773 905.349 433.586 904.603 433.586 903.76C433.586 902.917 433.767 902.171 434.13 901.52C434.503 900.869 435.01 900.363 435.65 900C436.301 899.627 437.031 899.44 437.842 899.44C438.663 899.44 439.389 899.621 440.018 899.984C440.647 900.347 441.138 900.859 441.49 901.52C441.853 902.171 442.034 902.933 442.034 903.808C442.034 903.872 442.029 903.947 442.018 904.032C442.018 904.117 442.013 904.197 442.002 904.272H434.786V903.168H441.202L440.578 903.552C440.589 903.008 440.477 902.523 440.242 902.096C440.007 901.669 439.682 901.339 439.266 901.104C438.861 900.859 438.386 900.736 437.842 900.736C437.309 900.736 436.834 900.859 436.418 901.104C436.002 901.339 435.677 901.675 435.442 902.112C435.207 902.539 435.09 903.029 435.09 903.584V903.84C435.09 904.405 435.218 904.912 435.474 905.36C435.741 905.797 436.109 906.139 436.578 906.384C437.047 906.629 437.586 906.752 438.194 906.752C438.695 906.752 439.149 906.667 439.554 906.496C439.97 906.325 440.333 906.069 440.642 905.728L441.49 906.72C441.106 907.168 440.626 907.509 440.05 907.744C439.485 907.979 438.85 908.096 438.146 908.096ZM447.079 908.096C446.226 908.096 445.564 907.867 445.095 907.408C444.626 906.949 444.391 906.293 444.391 905.44V897.664H445.927V905.376C445.927 905.835 446.039 906.187 446.263 906.432C446.498 906.677 446.828 906.8 447.255 906.8C447.735 906.8 448.135 906.667 448.455 906.4L448.935 907.504C448.7 907.707 448.418 907.856 448.087 907.952C447.767 908.048 447.431 908.096 447.079 908.096ZM442.951 900.784V899.52H448.359V900.784H442.951ZM458.785 908.096C457.921 908.096 457.147 907.909 456.465 907.536C455.793 907.163 455.265 906.651 454.881 906C454.497 905.349 454.305 904.603 454.305 903.76C454.305 902.917 454.497 902.171 454.881 901.52C455.265 900.869 455.793 900.363 456.465 900C457.147 899.627 457.921 899.44 458.785 899.44C459.553 899.44 460.235 899.595 460.833 899.904C461.441 900.203 461.91 900.651 462.241 901.248L461.073 902C460.795 901.584 460.454 901.28 460.049 901.088C459.654 900.885 459.227 900.784 458.769 900.784C458.214 900.784 457.718 900.907 457.281 901.152C456.843 901.397 456.497 901.744 456.241 902.192C455.985 902.629 455.857 903.152 455.857 903.76C455.857 904.368 455.985 904.896 456.241 905.344C456.497 905.792 456.843 906.139 457.281 906.384C457.718 906.629 458.214 906.752 458.769 906.752C459.227 906.752 459.654 906.656 460.049 906.464C460.454 906.261 460.795 905.952 461.073 905.536L462.241 906.272C461.91 906.859 461.441 907.312 460.833 907.632C460.235 907.941 459.553 908.096 458.785 908.096ZM467.736 908.096C466.883 908.096 466.126 907.909 465.464 907.536C464.803 907.163 464.28 906.651 463.896 906C463.512 905.339 463.32 904.592 463.32 903.76C463.32 902.917 463.512 902.171 463.896 901.52C464.28 900.869 464.803 900.363 465.464 900C466.126 899.627 466.883 899.44 467.736 899.44C468.579 899.44 469.331 899.627 469.992 900C470.664 900.363 471.187 900.869 471.56 901.52C471.944 902.16 472.136 902.907 472.136 903.76C472.136 904.603 471.944 905.349 471.56 906C471.187 906.651 470.664 907.163 469.992 907.536C469.331 907.909 468.579 908.096 467.736 908.096ZM467.736 906.752C468.28 906.752 468.766 906.629 469.192 906.384C469.63 906.139 469.971 905.792 470.216 905.344C470.462 904.885 470.584 904.357 470.584 903.76C470.584 903.152 470.462 902.629 470.216 902.192C469.971 901.744 469.63 901.397 469.192 901.152C468.766 900.907 468.28 900.784 467.736 900.784C467.192 900.784 466.707 900.907 466.28 901.152C465.854 901.397 465.512 901.744 465.256 902.192C465 902.629 464.872 903.152 464.872 903.76C464.872 904.357 465 904.885 465.256 905.344C465.512 905.792 465.854 906.139 466.28 906.384C466.707 906.629 467.192 906.752 467.736 906.752ZM478.789 899.44C479.482 899.44 480.09 899.573 480.613 899.84C481.146 900.107 481.562 900.512 481.861 901.056C482.159 901.6 482.309 902.288 482.309 903.12V908H480.773V903.296C480.773 902.475 480.57 901.856 480.165 901.44C479.77 901.024 479.21 900.816 478.485 900.816C477.941 900.816 477.466 900.923 477.061 901.136C476.655 901.349 476.341 901.664 476.117 902.08C475.903 902.496 475.797 903.013 475.797 903.632V908H474.261V899.52H475.733V901.808L475.493 901.2C475.77 900.645 476.197 900.213 476.773 899.904C477.349 899.595 478.021 899.44 478.789 899.44ZM489.679 899.44C490.373 899.44 490.981 899.573 491.503 899.84C492.037 900.107 492.453 900.512 492.751 901.056C493.05 901.6 493.199 902.288 493.199 903.12V908H491.663V903.296C491.663 902.475 491.461 901.856 491.055 901.44C490.661 901.024 490.101 900.816 489.375 900.816C488.831 900.816 488.357 900.923 487.951 901.136C487.546 901.349 487.231 901.664 487.007 902.08C486.794 902.496 486.687 903.013 486.687 903.632V908H485.151V899.52H486.623V901.808L486.383 901.2C486.661 900.645 487.087 900.213 487.663 899.904C488.239 899.595 488.911 899.44 489.679 899.44ZM499.818 908.096C498.911 908.096 498.111 907.909 497.418 907.536C496.735 907.163 496.202 906.651 495.818 906C495.445 905.349 495.258 904.603 495.258 903.76C495.258 902.917 495.439 902.171 495.802 901.52C496.175 900.869 496.682 900.363 497.322 900C497.973 899.627 498.703 899.44 499.514 899.44C500.335 899.44 501.061 899.621 501.69 899.984C502.319 900.347 502.81 900.859 503.162 901.52C503.525 902.171 503.706 902.933 503.706 903.808C503.706 903.872 503.701 903.947 503.69 904.032C503.69 904.117 503.685 904.197 503.674 904.272H496.458V903.168H502.874L502.25 903.552C502.261 903.008 502.149 902.523 501.914 902.096C501.679 901.669 501.354 901.339 500.938 901.104C500.533 900.859 500.058 900.736 499.514 900.736C498.981 900.736 498.506 900.859 498.09 901.104C497.674 901.339 497.349 901.675 497.114 902.112C496.879 902.539 496.762 903.029 496.762 903.584V903.84C496.762 904.405 496.89 904.912 497.146 905.36C497.413 905.797 497.781 906.139 498.25 906.384C498.719 906.629 499.258 906.752 499.866 906.752C500.367 906.752 500.821 906.667 501.226 906.496C501.642 906.325 502.005 906.069 502.314 905.728L503.162 906.72C502.778 907.168 502.298 907.509 501.722 907.744C501.157 907.979 500.522 908.096 499.818 908.096ZM509.535 908.096C508.671 908.096 507.897 907.909 507.215 907.536C506.543 907.163 506.015 906.651 505.631 906C505.247 905.349 505.055 904.603 505.055 903.76C505.055 902.917 505.247 902.171 505.631 901.52C506.015 900.869 506.543 900.363 507.215 900C507.897 899.627 508.671 899.44 509.535 899.44C510.303 899.44 510.985 899.595 511.583 899.904C512.191 900.203 512.66 900.651 512.991 901.248L511.823 902C511.545 901.584 511.204 901.28 510.799 901.088C510.404 900.885 509.977 900.784 509.519 900.784C508.964 900.784 508.468 900.907 508.031 901.152C507.593 901.397 507.247 901.744 506.991 902.192C506.735 902.629 506.607 903.152 506.607 903.76C506.607 904.368 506.735 904.896 506.991 905.344C507.247 905.792 507.593 906.139 508.031 906.384C508.468 906.629 508.964 906.752 509.519 906.752C509.977 906.752 510.404 906.656 510.799 906.464C511.204 906.261 511.545 905.952 511.823 905.536L512.991 906.272C512.66 906.859 512.191 907.312 511.583 907.632C510.985 907.941 510.303 908.096 509.535 908.096ZM518.001 908.096C517.147 908.096 516.486 907.867 516.017 907.408C515.547 906.949 515.313 906.293 515.313 905.44V897.664H516.849V905.376C516.849 905.835 516.961 906.187 517.185 906.432C517.419 906.677 517.75 906.8 518.177 906.8C518.657 906.8 519.057 906.667 519.377 906.4L519.857 907.504C519.622 907.707 519.339 907.856 519.009 907.952C518.689 908.048 518.353 908.096 518.001 908.096ZM513.873 900.784V899.52H519.281V900.784H513.873ZM521.714 908V899.52H523.25V908H521.714ZM522.482 897.888C522.183 897.888 521.932 897.792 521.73 897.6C521.538 897.408 521.442 897.173 521.442 896.896C521.442 896.608 521.538 896.368 521.73 896.176C521.932 895.984 522.183 895.888 522.482 895.888C522.78 895.888 523.026 895.984 523.218 896.176C523.42 896.357 523.522 896.587 523.522 896.864C523.522 897.152 523.426 897.397 523.234 897.6C523.042 897.792 522.791 897.888 522.482 897.888ZM529.815 908.096C528.961 908.096 528.204 907.909 527.543 907.536C526.881 907.163 526.359 906.651 525.975 906C525.591 905.339 525.399 904.592 525.399 903.76C525.399 902.917 525.591 902.171 525.975 901.52C526.359 900.869 526.881 900.363 527.543 900C528.204 899.627 528.961 899.44 529.815 899.44C530.657 899.44 531.409 899.627 532.071 900C532.743 900.363 533.265 900.869 533.639 901.52C534.023 902.16 534.215 902.907 534.215 903.76C534.215 904.603 534.023 905.349 533.639 906C533.265 906.651 532.743 907.163 532.071 907.536C531.409 907.909 530.657 908.096 529.815 908.096ZM529.815 906.752C530.359 906.752 530.844 906.629 531.271 906.384C531.708 906.139 532.049 905.792 532.295 905.344C532.54 904.885 532.663 904.357 532.663 903.76C532.663 903.152 532.54 902.629 532.295 902.192C532.049 901.744 531.708 901.397 531.271 901.152C530.844 900.907 530.359 900.784 529.815 900.784C529.271 900.784 528.785 900.907 528.359 901.152C527.932 901.397 527.591 901.744 527.335 902.192C527.079 902.629 526.951 903.152 526.951 903.76C526.951 904.357 527.079 904.885 527.335 905.344C527.591 905.792 527.932 906.139 528.359 906.384C528.785 906.629 529.271 906.752 529.815 906.752ZM540.867 899.44C541.56 899.44 542.168 899.573 542.691 899.84C543.224 900.107 543.64 900.512 543.939 901.056C544.237 901.6 544.387 902.288 544.387 903.12V908H542.851V903.296C542.851 902.475 542.648 901.856 542.243 901.44C541.848 901.024 541.288 900.816 540.563 900.816C540.019 900.816 539.544 900.923 539.139 901.136C538.733 901.349 538.419 901.664 538.195 902.08C537.981 902.496 537.875 903.013 537.875 903.632V908H536.339V899.52H537.811V901.808L537.571 901.2C537.848 900.645 538.275 900.213 538.851 899.904C539.427 899.595 540.099 899.44 540.867 899.44ZM547.597 908.096C547.299 908.096 547.043 907.995 546.829 907.792C546.616 907.579 546.509 907.312 546.509 906.992C546.509 906.672 546.616 906.411 546.829 906.208C547.043 906.005 547.299 905.904 547.597 905.904C547.885 905.904 548.131 906.005 548.333 906.208C548.547 906.411 548.653 906.672 548.653 906.992C548.653 907.312 548.547 907.579 548.333 907.792C548.131 907.995 547.885 908.096 547.597 908.096Z" fill="#E0EAFF" fill-opacity="0.75"/>
<rect x="339.5" y="926" width="16" height="8" rx="4" fill="#E0EAFF"/>
<rect x="359.5" y="926" width="8" height="8" rx="4" fill="#E0EAFF" fill-opacity="0.5"/>
<rect x="371.5" y="926" width="8" height="8" rx="4" fill="#E0EAFF" fill-opacity="0.5"/>
<defs>
<radialGradient id="paint0_radial_3_235" cx="0" cy="0" r="1" gradientUnits="userSpaceOnUse" gradientTransform="translate(360 512) rotate(90) scale(303)">
<stop stop-color="#444CE7" stop-opacity="0.81"/>
<stop offset="1" stop-color="#444CE7" stop-opacity="0.29"/>
</radialGradient>
<linearGradient id="paint1_linear_3_235" x1="232.047" y1="209" x2="417.757" y2="806.559" gradientUnits="userSpaceOnUse">
<stop stop-color="#444CE7" stop-opacity="0.81"/>
<stop offset="1" stop-opacity="0"/>
</linearGradient>
<radialGradient id="paint2_radial_3_235" cx="0" cy="0" r="1" gradientUnits="userSpaceOnUse" gradientTransform="translate(360 511) rotate(90) scale(264)">
<stop stop-color="#444CE7" stop-opacity="0.81"/>
<stop offset="1" stop-color="#444CE7" stop-opacity="0.29"/>
</radialGradient>
<linearGradient id="paint3_linear_3_235" x1="360" y1="247" x2="413.333" y2="745.667" gradientUnits="userSpaceOnUse">
<stop stop-color="#A4BCFD"/>
<stop offset="1" stop-color="#444CE7" stop-opacity="0.81"/>
</linearGradient>
<clipPath id="clip0_3_235">
<rect width="586" height="369" fill="white" transform="translate(67 327)"/>
</clipPath>
</defs>
</svg>
